<?xml version="1.0" encoding="UTF-8" standalone="no"?>
<!-- Created with Inkscape (http://www.inkscape.org/) -->

<svg
   version="1.1"
   id="svg2"
   width="1024"
   height="1024"
   viewBox="0 0 1024 1024"
   sodipodi:docname="mouse 2.svg"
   inkscape:export-filename="..\source\repos\DebounceMyMouse\DebounceMyMouse\Assets\mouse.png"
   inkscape:export-xdpi="96.000092"
   inkscape:export-ydpi="96.000092"
   inkscape:version="1.2.2 (732a01da63, 2022-12-09)"
   xmlns:inkscape="http://www.inkscape.org/namespaces/inkscape"
   xmlns:sodipodi="http://sodipodi.sourceforge.net/DTD/sodipodi-0.dtd"
   xmlns="http://www.w3.org/2000/svg"
   xmlns:svg="http://www.w3.org/2000/svg">
  <defs
     id="defs6">
    <clipPath
       clipPathUnits="userSpaceOnUse"
       id="clipPath18">
      <path
         d="M 0,1080 H 1920 V 0 H 0 Z"
         id="path16" />
    </clipPath>
    <clipPath
       clipPathUnits="userSpaceOnUse"
       id="clipPath26">
      <path
         d="M 382.466,1467.1 H 1580.75 V -130.621 H 382.466 Z"
         id="path24" />
    </clipPath>
    <clipPath
       clipPathUnits="userSpaceOnUse"
       id="clipPath30">
      <path
         d="M 1580.753,1467.096 H 382.465 V -130.621 h 1198.288 z"
         id="path28" />
    </clipPath>
    <clipPath
       clipPathUnits="userSpaceOnUse"
       id="clipPath52">
      <path
         d="M 0,1080 H 1920 V 0 H 0 Z"
         id="path50" />
    </clipPath>
    <clipPath
       clipPathUnits="userSpaceOnUse"
       id="clipPath68">
      <path
         d="M 0,1080 H 1920 V 0 H 0 Z"
         id="path66" />
    </clipPath>
    <clipPath
       clipPathUnits="userSpaceOnUse"
       id="clipPath80">
      <path
         d="M 0,1080 H 1920 V 0 H 0 Z"
         id="path78" />
    </clipPath>
    <clipPath
       clipPathUnits="userSpaceOnUse"
       id="clipPath108">
      <path
         d="M 0,1080 H 1920 V 0 H 0 Z"
         id="path106" />
    </clipPath>
    <clipPath
       clipPathUnits="userSpaceOnUse"
       id="clipPath120">
      <path
         d="M 0,1080 H 1920 V 0 H 0 Z"
         id="path118" />
    </clipPath>
    <clipPath
       clipPathUnits="userSpaceOnUse"
       id="clipPath292">
      <path
         d="M 0,1080 H 1920 V 0 H 0 Z"
         id="path290" />
    </clipPath>
  </defs>
  <sodipodi:namedview
     id="namedview4"
     pagecolor="#ffffff"
     bordercolor="#000000"
     borderopacity="0.25"
     inkscape:showpageshadow="2"
     inkscape:pageopacity="0.0"
     inkscape:pagecheckerboard="0"
     inkscape:deskcolor="#d1d1d1"
     showgrid="false"
     inkscape:zoom="1.3007812"
     inkscape:cx="478.55856"
     inkscape:cy="554.28228"
     inkscape:window-width="3840"
     inkscape:window-height="2054"
     inkscape:window-x="-11"
     inkscape:window-y="-11"
     inkscape:window-maximized="1"
     inkscape:current-layer="g10">
    <inkscape:page
       x="0"
       y="0"
       id="page8"
       width="1024"
       height="1024" />
  </sodipodi:namedview>
  <g
     id="g10"
     inkscape:groupmode="layer"
     inkscape:label="Page 1"
     transform="matrix(1.3333333,0,0,-1.3333333,-785.70851,1419.9638)">
    <g
       id="g46"
       transform="matrix(0.85148869,0,0,0.89770114,87.514952,108.94551)">
      <g
         id="g48"
         clip-path="url(#clipPath52)">
        <g
           id="g54"
           transform="translate(1475.0327,222.2718)">
          <path
             d="m 0,0 c -12.929,-12.597 -36.745,-13.65 -56.324,-13.826 -239.016,-0.18 -515.973,-0.211 -759.404,-0.139 -18.329,0.622 -48.872,-2.427 -60.459,9.215 -10.05,10.475 -8.873,34.749 -9.126,50.153 -0.044,41.966 -0.403,97.089 -0.328,142.54 0.425,190.665 -0.896,420.058 0.717,604.16 1.349,15.815 3.454,27.348 13.267,37.166 10.253,9.39 22.407,11.38 39.016,12.676 194.077,1.406 435.137,0.344 635.747,0.729 47.665,0.087 105.559,-0.066 149.557,-0.082 16.213,-0.105 41.691,0.871 52.608,-8.557 12.258,-11.127 9.007,-40.396 9.645,-57.814 C 14.882,544.755 15.111,280.817 14.768,53.669 14.606,34.994 13.405,12.381 0.088,0.083 Z"
             style="fill:#cbebf9;fill-opacity:1;fill-rule:nonzero;stroke:none"
             id="path56" />
        </g>
        <g
           id="g58"
           transform="translate(1457.7374,208.2709)">
          <path
             d="m 0,0 h -836.201 c -17.814,0 -32.255,14.441 -32.255,32.255 v 336.697 c 0,17.814 14.441,32.255 32.255,32.255 H 0 c 17.814,0 32.255,-14.441 32.255,-32.255 V 32.255 C 32.255,14.441 17.814,0 0,0"
             style="fill:#a0d5b0;fill-opacity:1;fill-rule:nonzero;stroke:none"
             id="path60" />
        </g>
      </g>
    </g>
    <g
       id="g62"
       transform="matrix(0.85148869,0,0,0.89770114,87.514952,108.94551)">
      <g
         id="g64"
         clip-path="url(#clipPath68)">
        <g
           id="g70"
           transform="translate(1384.0162,916.9962)">
          <path
             d="m 0,0 c 0,-61.416 -49.787,-111.204 -111.203,-111.204 -61.417,0 -111.204,49.788 -111.204,111.204 0,61.416 49.787,111.203 111.204,111.203 C -49.787,111.203 0,61.416 0,0"
             style="fill:#fcf6b4;fill-opacity:1;fill-rule:nonzero;stroke:none"
             id="path72" />
        </g>
      </g>
    </g>
    <g
       id="g74"
       transform="matrix(0.85148869,0,0,0.89770114,87.514952,108.94551)">
      <g
         id="g76"
         clip-path="url(#clipPath80)">
        <g
           id="g82"
           transform="translate(1280.7225,440.7985)">
          <path
             d="m 0,0 c 5.361,1.123 62.802,13.51 113.419,-11.519 13.633,-6.742 22.347,-14.01 21.266,-16.836 -1.944,-5.078 -33.369,9.816 -67.343,-0.886 -16.789,-5.288 -27.178,-14.615 -31.013,-17.721 -45.914,-37.191 -203.427,-34.031 -348.231,-38.102 -74.135,-2.084 -151.207,16.296 -222.452,-4.309 -12.166,-3.519 -53.093,-16.41 -79.978,3.313 -1.695,1.244 -16.978,12.719 -14.788,24.034 0.79,4.078 4.923,13.69 49.621,23.038 45.603,9.538 80.533,7.737 80.634,9.747 0.118,2.375 -48.463,8.309 -108.103,22.152 -25.662,5.957 -48.022,12.137 -52.871,27.837 0,0 -3.195,10.344 4.137,23.556 C -619.569,109.416 -139.331,-29.188 0,0"
             style="fill:#70987f;fill-opacity:1;fill-rule:nonzero;stroke:none"
             id="path84" />
        </g>
        <g
           id="g86"
           transform="translate(988.5688,1000.7999)">
          <path
             d="m 0,0 c -12.634,-2.265 -24.11,-8.459 -31.041,-18.967 -4.571,-6.711 -7.08,-14.563 -10.212,-21.997 -2.462,-5.918 -5.505,-11.46 -9.446,-16.446 -5.17,-6.682 -11.853,-12.454 -16.955,-19.21 -3.588,-4.722 -6.372,-10.021 -7.666,-15.81 -3.215,-13.582 2.523,-30.018 16.111,-35.099 12.274,-4.63 24.469,2.828 35.684,7.319 17.228,7.297 28.789,2.203 44.781,-4.431 15.122,-6.341 33.505,-8.979 48.059,-0.516 12.193,6.745 20.114,19.187 31.873,26.52 11.064,7.32 24.999,10.222 35.255,18.855 9.148,7.415 14.492,19.26 13.356,31.034 -1.606,19.899 -19.983,33.705 -38.912,36.581 C 92.319,-8.992 73.238,-14.526 54.969,-9.405 35.903,-4.247 20.606,4.024 0.199,0.036 Z"
             style="fill:#ffffff;fill-opacity:1;fill-rule:nonzero;stroke:none"
             id="path88" />
        </g>
        <g
           id="g90"
           transform="translate(1389.236,916.2753)" />
        <g
           id="g94"
           transform="translate(636.9311,947.0259)">
          <path
             d="m 132.61262,-4.6126127 c -15.981,6.344 -33.418004,7.397 -48.728004,0.331 -9.942,-4.411 -18.343,-11.5780003 -27.157,-17.8280003 -6.982,-4.998 -14.359,-9.157 -22.366,-12.049 -10.603,-3.956 -22.287,-5.806 -32.8660001,-9.894 -7.419,-2.841 -14.3299999,-6.907 -19.8909999,-12.582 -13.25,-13.191 -18.326,-35.951 -6.447,-51.329997 10.702,-13.938 29.8499999,-14.061 45.787,-16.868 24.764,-3.861 34.326,-17.823 47.845,-36.668 12.734,-17.896 31.797004,-33.881 54.340004,-34.525 18.642,-0.933 36.446,7.636 55.009,7.68 17.763,0.518 35.674,-6.02 53.445,-3.435 15.649,1.98 30.097,11.689 37.118,25.895 12.224,23.783 1.055,52.476 -18.46,69.116997 -18.894,16.727 -44.522,23.902 -61.7,42.633 -18.061,19.334 -29.632,39.552 -55.677,49.4230003 z"
             style="fill:#ffffff;fill-opacity:1;fill-rule:nonzero;stroke:none"
             id="path96" />
        </g>
      </g>
    </g>
    <g
       id="g98"
       transform="matrix(0.85148869,0,0,0.89770114,808.18007,638.68317)">
      <path
         d="m 0,0 103.667,16.631 144.867,-35.77 183.41,-123.329 4.652,-21.415 6.645,-25.165 -2.688,-7.693 -145.502,0.619 -311.262,23.63 -55.481,5.414 z"
         style="fill:#cccccc;fill-opacity:1;fill-rule:nonzero;stroke:none"
         id="path100" />
    </g>
    <g
       id="g102"
       transform="matrix(0.85148869,0,0,0.89770114,87.514952,108.94551)">
      <g
         id="g104"
         clip-path="url(#clipPath108)">
        <g
           id="g110"
           transform="translate(846.6664,589.7104)">
          <path
             d="m 0,0 c 0.149,0.376 -71.809,-169.465 -71.949,-166.188 26.808,-2.702 65.143,-6.413 91.6,-8.154 57.93,-4.399 215.136,-16.332 275.131,-20.887 -0.154,-0.016 145.486,-0.604 145.466,-0.617 0,0 -0.474,-0.335 -0.474,-0.335 1.05,1.071 1.358,2.402 1.784,3.692 0.392,1.302 0.731,2.622 0.904,4 l -0.011,-0.293 -6.123,23.187 c -1.668,6.513 -3.651,16.748 -5.18,23.415 1.671,-1.348 -183.727,123.351 -183.199,123.02 1.037,-0.288 -145.675,35.879 -144.511,35.692 C 103.438,16.532 0,0 0,0 m -0.615,0.789 c 0.06,0.039 103.932,16.714 103.995,16.746 0.005,0.065 144.93,-35.833 144.966,-35.794 0.147,0.052 183.428,-123.373 183.57,-123.4 0,0 0.167,-0.112 0.167,-0.112 l 0.043,-0.197 c 1.474,-6.648 3.548,-16.842 5.173,-23.392 0.001,0 6.118,-23.166 6.118,-23.166 l 0.051,-0.191 c -0.753,-1.213 -1.327,-2.497 -1.846,-3.794 -0.502,-1.362 -1.143,-2.755 -0.869,-4.338 -0.046,-0.135 -145.82,0.718 -146.029,0.621 -73.347,5.574 -226.262,17.173 -298.086,22.63 -16.329,1.046 -52.171,4.904 -68.687,6.417 0.001,0 -0.68,0.066 -0.68,0.066 -0.203,0.534 72.169,167.306 72.114,167.904"
             style="fill:#000000;fill-opacity:1;fill-rule:nonzero;stroke:none"
             id="path112" />
        </g>
      </g>
    </g>
    <g
       id="g114"
       transform="matrix(0.85148869,0,0,0.89770114,87.514952,108.94551)">
      <g
         id="g116"
         clip-path="url(#clipPath120)">
        <g
           id="g122"
           transform="translate(897.6914,612.9342)">
          <path
             d="m 0,0 c -18.6,19.036 -37.055,27.137 -47.606,30.777 -54.212,18.705 -121.107,-4.081 -143.545,-40.759 -7.25,-11.851 -8.683,-23.062 -22.595,-35.444 -10.565,-9.402 -21.51,-13.414 -27.912,-27.468 -2.905,-6.377 -3.525,-11.859 -3.987,-15.95 -2.177,-19.25 5.036,-34.368 7.531,-39.431 9.334,-18.936 23.996,-28.703 32.342,-34.114 9.792,-6.347 18.578,-9.81 30.57,-13.734 17.222,-5.635 41.766,-12.514 72.997,-17.625"
             style="fill:#cccccc;fill-opacity:1;fill-rule:nonzero;stroke:none"
             id="path124" />
        </g>
        <g
           id="g126"
           transform="translate(894.8304,610.1387)">
          <path
             d="m 0,0 c -14.407,14.809 -32.319,26.341 -52.274,31.917 -39.485,10.918 -85.789,2.538 -117.917,-23.326 -7.974,-6.576 -14.59,-14.41 -19.169,-23.734 -2.363,-4.647 -4.502,-9.653 -7.402,-14.405 -5.463,-9.601 -14.405,-16.907 -22.939,-23.467 -8.487,-6.14 -15.267,-13.088 -18.067,-23.261 -2.6,-9.725 -2.718,-20.212 -0.552,-30.057 4.291,-20.168 17.478,-37.442 34.682,-48.543 12.943,-9.226 27.568,-14.22 42.726,-19.195 10.08,-3.307 20.287,-6.264 30.6,-8.831 10.315,-2.565 20.704,-4.919 31.226,-6.475 l -0.515,-3.15 c -21.109,3.64 -42.193,7.52 -62.869,13.266 -10.431,2.96 -20.815,5.827 -30.761,10.382 -14.913,7.155 -28.81,17.146 -38.576,30.658 -10.533,14.767 -16.271,33.189 -14.33,51.377 0.789,9.887 3.982,19.767 10.523,27.424 5.55,6.55 12.462,10.633 19.126,15.418 6.172,4.618 11.412,10.387 15.198,17.105 5.073,9.217 8.454,20.106 15.438,28.461 30.245,36.954 90.63,50.179 135.633,37.676 C -28.905,33.529 -9.664,21.235 5.722,5.591 5.722,5.591 0,0 0,0"
             style="fill:#000000;fill-opacity:1;fill-rule:nonzero;stroke:none"
             id="path128" />
        </g>
        <g
           id="g130"
           transform="translate(913.4407,429.7224)">
          <path
             d="m 0,0 c -28.683,3.353 -51.466,1.5 -67.338,-0.954 -22.717,-3.513 -69.546,-14.177 -88.613,-15.882 -1.581,-0.141 -6.685,-0.553 -14.177,-1.329 -15.068,-1.56 -14.229,-1.945 -16.836,-1.772 -13.46,0.894 -17.701,9.956 -25.253,7.089 -3.708,-1.408 -6.859,-5.177 -6.646,-8.418 0.315,-4.78 7.904,-7.735 7.532,-8.418 -0.372,-0.682 -7.228,3.584 -16.393,4.431 -3.611,0.333 -10.843,1.001 -12.848,-2.659 -1.577,-2.878 0.505,-7.657 3.545,-10.19 4.751,-3.96 11.924,-2.501 11.962,-3.101 0.06,-0.964 -18.754,-0.18 -21.709,-7.532 -0.967,-2.405 -0.11,-5.366 1.329,-7.088 2.694,-3.226 8.015,-2.815 14.62,-2.215 7.863,0.713 13.382,2.654 13.734,1.772 0.434,-1.085 -7.997,-3.831 -7.974,-7.975 0.013,-2.437 2.945,-4.831 5.759,-5.76 5.765,-1.902 10.225,2.614 22.152,7.975 3.597,1.699 9.05,3.986 15.95,5.76 8.887,2.285 15.942,2.63 19.021,2.763 57.871,2.512 80.22,1.224 80.22,1.224 27.59,-1.589 55.241,-1.861 82.849,-3.101 12.944,-0.582 68.394,-2.966 136.014,-2.215 56.349,0.625 85.163,1.051 116.52,6.645 10.045,1.792 22.632,4.497 42.532,6.646 22.188,2.396 36.178,3.352 52.722,4.873 8.604,0.792 21.419,2.085 37.216,4.135"
             style="fill:#cccccc;fill-opacity:1;fill-rule:nonzero;stroke:none"
             id="path132" />
        </g>
        <g
           id="g134"
           transform="translate(913.3111,428.6137)">
          <path
             d="m 0,0 c -5.163,-1.11 -10.206,-0.498 -15.359,-0.316 -15.19,0.958 -30.466,0.706 -45.58,-1.147 -34.675,-4.471 -71.333,-14.433 -106.303,-16.936 -5.099,-0.477 -10.178,-1.046 -15.233,-1.724 -1.12,-0.16 -2.96,-0.423 -4.121,-0.322 -4.074,0.301 -8.095,1.084 -11.967,2.437 -3.579,1.143 -6.619,3.019 -9.956,3.562 -2.612,0.176 -5.112,-1.364 -6.829,-3.403 -1.116,-1.549 -1.542,-2.622 -0.366,-4.483 1.15,-1.818 3.257,-3.225 5.024,-4.533 0.169,-0.151 0.312,-0.225 0.642,-0.645 0,0 0.752,-0.97 -0.021,-2.017 -0.928,-0.851 -1.233,-0.514 -1.466,-0.593 -0.415,0.041 -0.6,0.111 -0.801,0.169 -0.383,0.121 -0.693,0.248 -1.006,0.367 -5.155,2.2 -10.727,3.531 -16.326,3.316 -2.239,-0.037 -4.683,-0.157 -6.654,-0.899 -0.89,-0.315 -1.339,-0.769 -1.438,-1.022 -0.449,-1.029 0.18,-2.909 0.831,-4.117 1.957,-4.139 6.009,-6.024 10.665,-6.194 0.543,-0.05 0.936,-0.018 1.569,-0.181 -0.213,0.156 1.618,-0.419 0.915,-2.142 -0.631,-0.781 -0.725,-0.562 -0.924,-0.706 -4.542,-0.75 -9.213,-1.012 -13.422,-2.822 -3.573,-1.482 -7.065,-3.497 -5.266,-7.303 1.477,-3.414 6.988,-2.693 10.485,-2.909 3.839,-0.052 7.53,0.109 11.319,0.661 0,0 1.94,0.246 1.94,0.246 1.059,0.061 2.463,0.521 3.568,-0.371 0.705,-0.542 0.634,-1.776 0.142,-2.31 -0.466,-0.546 -0.758,-0.683 -1.073,-0.91 -2.176,-1.325 -5.517,-3.083 -5.824,-5.603 0.115,-0.592 0.47,-0.967 0.957,-1.46 3.495,-2.899 6.652,-2.832 10.952,-0.567 16.697,9.14 32.919,14.823 52.143,14.874 4.847,0.225 18.062,0.669 23.089,0.836 20.505,0.53 41.193,1.106 61.694,-0.148 91.889,-3.397 184.684,-7.623 276.568,-2.856 15.281,0.887 30.441,2.317 45.487,4.945 20.145,3.907 40.549,7.523 61.063,9.148 15.251,1.444 30.777,2.091 46.046,3.281 10.207,0.608 20.604,-0.02 30.65,2.189 l 0.41,-3.158 c -10.34,-0.056 -20.33,-2.949 -30.51,-4.607 -14.517,-2.153 -31.159,-3.603 -45.867,-5.188 -15.23,-1.505 -30.366,-3.166 -45.439,-5.944 -10.079,-1.872 -20.404,-3.568 -30.654,-4.566 -30.767,-3.063 -61.739,-2.39 -92.544,-2.66 -20.524,-0.397 -41.063,-0.322 -61.59,-0.066 -29.553,0.309 -62.593,1.485 -92.314,2.79 -21.375,0.74 -48.075,1.34 -69.165,2.57 -22.774,0.822 -46.241,-0.002 -69.058,-0.762 0,0 -7.678,-0.311 -7.678,-0.311 -12.562,-0.217 -24.998,-2.851 -36.322,-8.259 -4.74,-2.161 -8.958,-4.561 -13.648,-6.961 -2.629,-1.297 -5.521,-2.517 -8.708,-2.317 -4.965,0.315 -11.015,4.802 -9.567,10.204 1.454,3.846 5.912,4.835 8.671,7.183 -0.038,-0.051 -0.107,-0.114 -0.169,-0.42 -0.081,-0.308 0.115,-0.842 0.362,-1.031 0.243,-0.214 0.366,-0.213 0.397,-0.237 0.056,-0.013 0.025,-0.014 0.013,-0.014 -0.307,-0.012 -0.993,-0.135 -1.565,-0.268 -1.726,-0.43 -4.011,-1.015 -5.62,-1.424 -3.882,-0.941 -7.74,-1.727 -11.718,-2.131 -3.106,-0.261 -6.297,-0.246 -9.276,1.596 -4.855,2.989 -6.238,10.814 -1.815,14.795 6.178,5.142 14.602,3.511 21.878,4.774 0.046,0.011 0.084,0.027 0.084,0.027 -0.053,-0.084 0.018,0.184 -0.517,-0.462 -0.624,-1.557 0.999,-2.013 0.643,-1.836 -3.966,-0.251 -9.686,-0.543 -13.447,2.45 -4.978,3.434 -7.708,12.421 -1.534,16.097 3.433,1.909 7.486,1.542 11.111,1.044 5.302,-0.7 10.4,-2.408 15.279,-4.44 0,0 1.773,-0.713 1.773,-0.713 0.285,-0.111 0.576,-0.211 0.805,-0.277 0.105,-0.036 0.232,-0.049 0.136,-0.038 -0.082,-0.081 -0.197,0.235 -1.018,-0.486 -0.674,-0.92 -0.021,-1.686 -0.095,-1.587 -3.109,1.959 -7.976,4.262 -8.615,9.005 -0.519,7.048 6.559,13.091 13.422,12.169 6.89,-1.37 10.867,-7.52 17.632,-8.684 2.292,-0.559 4.791,-0.634 7.122,-0.202 8.684,1.198 18.106,1.962 26.842,2.836 30.739,3.679 63.817,13.056 94.489,17.57 15.409,2.083 31.019,2.637 46.543,1.79 C -9.823,4.781 -4.601,4.474 0.259,2.218 0.259,2.217 0,0 0,0"
             style="fill:#000000;fill-opacity:1;fill-rule:nonzero;stroke:none"
             id="path136" />
        </g>
        <g
           id="g138"
           transform="translate(865.1491,581.6858)">
          <path
             d="M 0,0 C 1.127,3.482 3.194,8.528 7.089,13.734 14.181,23.215 22.92,27.329 26.14,28.798 31.063,31.044 51.635,39.446 70.887,28.355 85.343,20.026 90.181,5.818 91.71,1.329 97.555,-15.836 92.582,-30.657 90.381,-37.216 87.908,-44.584 84.827,-53.765 75.76,-61.14 64.404,-70.376 51.296,-70.567 46.962,-70.444"
             style="fill:#cccccc;fill-opacity:1;fill-rule:nonzero;stroke:none"
             id="path140" />
        </g>
        <g
           id="g142"
           transform="translate(864.0167,582.0522)">
          <path
             d="m 0,0 c 10.237,42.667 70.19,52.415 91.785,13.349 8.72,-15.327 9.822,-33.137 3.85,-49.584 -3.777,-11.69 -9.107,-22.732 -20.038,-29.382 -8.1,-5.201 -18.031,-7.35 -27.543,-6.622 l 0.082,2.858 c 18.579,0.426 33.557,10.944 38.815,28.833 6.251,17.308 7.094,33.502 -2.184,49.901 C 78.591,20.379 67.426,28.185 54.8,29.019 38.361,29.881 19.747,23.649 9.067,10.638 6.285,7.252 4.048,3.388 2.265,-0.733 Z"
             style="fill:#000000;fill-opacity:1;fill-rule:nonzero;stroke:none"
             id="path144" />
        </g>
        <g
           id="g146"
           transform="translate(913.8837,521.8752)">
          <path
             d="m 0,0 c 3.668,1.39 12.461,5.289 19.051,14.62 2.41,3.412 9.279,13.138 7.089,26.14 -2.281,13.537 -12.698,20.635 -15.064,22.152 -3.183,2.04 -9.598,5.386 -18.165,5.316 -3.068,-0.024 -13.566,-0.545 -22.152,-8.86 -6.193,-5.998 -8.188,-12.949 -8.861,-15.95"
             style="fill:#f9bec5;fill-opacity:1;fill-rule:nonzero;stroke:none"
             id="path148" />
        </g>
        <g
           id="g150"
           transform="translate(913.726,522.2916)">
          <path
             d="m 0,0 c 10.284,5.199 17.926,14.283 21.334,25.131 3.018,9.994 0.323,20.895 -6.559,28.723 -15.742,18.487 -45.159,12.648 -51.832,-11.051 0,0 -1.774,0.398 -1.774,0.398 1.032,5.99 3.724,11.804 7.93,16.464 13.442,15.062 38.334,14.681 52.062,0.149 C 35.449,45.44 33.141,24.927 19.841,10.901 14.617,5.222 7.597,1.048 0.316,-0.833 0.316,-0.833 0,0 0,0"
             style="fill:#000000;fill-opacity:1;fill-rule:nonzero;stroke:none"
             id="path152" />
        </g>
        <g
           id="g154"
           transform="translate(781.4142,651.6865)">
          <path
             d="m 0,0 c -3.221,4.3 1.393,12.803 3.101,15.95 4.767,8.782 11.723,13.464 15.507,15.949 12.971,8.517 25.82,9.551 29.684,9.747 5.836,0.297 16.312,0.851 27.468,-5.317 11.819,-6.533 17.036,-16.373 18.165,-18.607 0.926,-1.833 5.751,-11.533 4.43,-23.925 -0.479,-4.499 -0.946,-8.885 -3.987,-10.633 -3.998,-2.298 -9.268,1.793 -17.722,5.76 0,0 -11.981,5.623 -28.326,8.149 C 34.84,-0.844 18.787,-1.6 16.045,-1.74 7.24,-2.188 2.3,-3.071 0,0"
             style="fill:#999999;fill-opacity:1;fill-rule:nonzero;stroke:none"
             id="path156" />
        </g>
        <g
           id="g158"
           transform="translate(783.6963,653.396)">
          <path
             d="m 0,0 c 1.289,-1.322 3.224,-0.989 5.161,-1.102 2.556,0.01 5.297,0.184 8.036,0.258 5.501,0.153 10.968,0.21 16.461,0.083 15.181,-0.208 30.438,-3.22 44.504,-9.025 4.812,-1.919 9.441,-5.182 14.284,-6.543 4.589,-1.078 4.323,5.762 4.817,8.841 C 94.802,8.914 84.158,24.461 69.908,31.786 62.682,35.535 54.371,36.639 46.223,36.307 29.526,35.802 10.734,27.64 2.409,12.536 0.55,9.098 -1.953,3.497 0,0 m -4.564,-3.419 c -3.911,5.779 0.526,12.801 3.081,18.044 3.774,7.657 10.219,13.904 17.331,18.475 11.868,8.05 26.419,11.525 40.704,10.665 24.812,-1.629 43.722,-22.609 42.61,-47.495 -0.292,-7.66 -0.975,-20.063 -11.88,-17.973 -5.634,1.509 -10.02,4.855 -15.207,7.016 C 58.612,-8.975 44.146,-6.103 29.518,-5.8 24.177,-5.628 18.797,-5.698 13.475,-6.102 7.761,-6.219 -0.256,-8.7 -4.564,-3.419"
             style="fill:#000000;fill-opacity:1;fill-rule:nonzero;stroke:none"
             id="path160" />
        </g>
        <g
           id="g162"
           transform="translate(936.0358,610.0405)">
          <path
             d="m 0,0 c 22.533,3.231 41.607,5.299 55.823,6.646 95.901,9.08 171.497,15.33 227.607,-23.878 4.63,-3.235 12.959,-9.119 22.253,-18.724 32.658,-33.755 22.398,-56.803 48.751,-89.425 2.481,-3.072 10.56,-12.751 7.531,-19.051 -2.489,-5.178 -10.063,-4.368 -13.734,-10.19 -3.534,-5.604 -0.932,-13.545 1.563,-19.022"
             style="fill:#cccccc;fill-opacity:1;fill-rule:nonzero;stroke:none"
             id="path164" />
        </g>
        <g
           id="g166"
           transform="translate(935.4681,614)">
          <path
             d="m 0,0 c 19.877,2.887 39.85,5.271 59.833,7.143 40.016,3.717 80.119,7.712 120.458,6.097 52.282,-1.92 102.544,-16.922 136.327,-59.307 6.377,-8.097 12.141,-16.956 16.133,-26.527 3.894,-9.595 6.089,-19.406 9.322,-28.617 1.736,-5.1 4.076,-10.339 6.596,-15.096 1.469,-2.403 3.224,-5.508 4.941,-7.742 5.188,-7.589 17.953,-20.249 8.047,-28.825 -2.832,-2.282 -7.171,-3.304 -9.323,-5.627 -2.937,-3.019 -2.554,-7.374 -1.257,-11.231 0.703,-2.119 1.712,-4.207 2.924,-6.214 l -7.28,-3.316 c -0.853,2.55 -1.637,5.156 -2.169,7.891 -1.156,5.763 -0.672,12.716 4.132,16.796 3.353,2.954 7.007,3.357 10.218,5.382 6.418,4.663 -2.875,15.331 -6.277,19.678 -6.403,7.9 -12.008,16.63 -16.303,25.963 -5.165,11.125 -8.518,22.104 -13.285,32.84 -2.239,4.804 -4.785,9.852 -7.872,14.178 -10.08,14.489 -24.005,25.98 -38.795,35.427 C 247.677,-2.863 213.61,3.528 179.924,4.952 140.159,6.58 100.269,2.518 60.605,-1.049 40.71,-2.837 20.899,-5.126 1.135,-7.919 Z"
             style="fill:#000000;fill-opacity:1;fill-rule:nonzero;stroke:none"
             id="path168" />
        </g>
        <g
           id="g170"
           transform="translate(1102.1766,637.9521)">
          <path
             d="m 0,0 c -0.618,0.799 -6.079,7.765 -13.291,12.405 -11.115,7.151 -33.048,13.059 -58.482,9.304 -12.058,-1.78 -32.068,-5.02 -47.405,-21.266 -3.906,-4.137 -14.14,-14.977 -11.076,-20.823 3.777,-7.209 23.551,1.241 71.765,3.644 11.085,0.552 22.145,1.811 33.244,1.892 17.907,0.131 29.191,-1.234 31.005,3.325 C 6.829,-8.831 4.114,-5.32 0,0"
             style="fill:#333333;fill-opacity:1;fill-rule:nonzero;stroke:none"
             id="path172" />
        </g>
        <g
           id="g174"
           transform="translate(1104.0814,639.4252)">
          <path
             d="m 0,0 c 2.606,-3.615 6.24,-6.842 6.642,-11.724 0.18,-3.987 -3.856,-6.312 -7.205,-6.782 -3.563,-0.659 -6.816,-0.688 -10.081,-0.776 -5.72,-0.059 -13.6,-0.157 -19.179,-0.352 -9.594,-0.413 -19.02,-1.498 -28.706,-2.001 -19.23,-0.759 -38.273,-1.9 -57.356,-4.687 -4.367,-0.354 -8.454,-2.348 -13.003,-1.889 -7.645,0.96 -9.428,8.736 -5.534,14.439 6.586,9.867 14.116,19.164 23.876,26.031 C -78.998,34.104 -24.555,31.168 0,0 m -3.81,-2.946 c -8.619,11.086 -17.153,15.627 -30.93,18.04 -18.173,3.042 -37.084,0.722 -54.873,-3.101 -9.583,-2.223 -18.894,-6.052 -26.508,-12.389 -2.868,-2.52 -5.766,-5.288 -8.233,-8.22 -1.948,-2.214 -3.793,-4.804 -4.464,-7.638 -0.339,-1.595 -0.546,-2.939 0.171,-3.772 3.193,-1.642 8.215,-2.262 12.215,-1.736 6.306,0.768 12.676,1.766 19.04,2.765 19.114,3.308 38.289,4.537 57.661,5.621 9.376,0.551 19.687,0.143 29.082,-0.163 3.144,-0.043 6.344,-0.083 9.118,0.336 1.354,0.178 2.61,0.675 2.838,0.988 1.186,1.654 -3.99,7.546 -5.117,9.269"
             style="fill:#000000;fill-opacity:1;fill-rule:nonzero;stroke:none"
             id="path176" />
        </g>
        <g
           id="g178"
           transform="translate(1192.7362,383.2859)">
          <path
             d="m 0,0 c 1.03,2.273 -19.04,15.434 -40.496,24.727 -31.031,13.442 -58.122,15.821 -76.203,17.279 -35.004,2.823 -61.749,-1.536 -70.444,-3.101 -13.687,-2.464 -34.535,-6.217 -58.924,-17.722 -15.547,-7.333 -22.47,-13.07 -40.317,-19.494 -22.153,-7.973 -37.71,-7.668 -37.624,-9.084 0.148,-2.43 45.563,-1.081 99.207,-0.663 71.324,0.557 106.986,0.835 114.6,0.296 0,0 65.281,-4.626 90.971,4.43 1.363,0.48 6.037,2.47 12.701,2.954 C -2.126,-0.058 -0.293,-0.646 0,0"
             style="fill:#f9bec5;fill-opacity:1;fill-rule:nonzero;stroke:none"
             id="path180" />
        </g>
        <g
           id="g182"
           transform="translate(1194.3634,382.5485)">
          <path
             d="m 0,0 c -0.581,-1.306 -2.104,-1.432 -3.305,-1.363 0,0 -1.71,0.035 -1.71,0.035 -1.11,0.009 -2.21,-0.033 -3.315,-0.126 -3.863,-0.303 -7.707,-1.228 -11.328,-2.616 -1.531,-0.541 -4.443,-1.339 -6.022,-1.817 -10.062,-2.266 -20.318,-3.198 -30.49,-3.699 -16.283,-0.768 -32.551,-0.479 -48.814,0.307 -7.619,0.544 -16.521,0.697 -24.241,0.748 -57.487,0.359 -116.424,-0.32 -173.958,-0.855 -5.813,0.009 -11.608,-0.007 -17.481,0.335 -1.83,0.193 -3.616,0.111 -5.408,0.918 -0.522,0.285 -0.976,0.882 -0.939,1.517 0.053,0.82 0.556,1.309 1.224,1.599 3.828,1.123 7.822,1.31 11.669,2.123 17.001,2.982 33.272,9.07 48.212,17.707 10.066,5.816 20.535,11.368 31.433,15.6 16.395,6.538 33.607,10.531 50.994,13.29 23.176,3.49 46.828,3.963 70.136,1.73 C -78.048,42.818 -44.02,31.83 -14.363,12.437 -11.54,10.481 0.065,3.361 -1.015,0.46 -1.015,0.46 0,0 0,0 M -2.24,1.015 C -2.297,0.884 -2.256,0.908 -2.314,1.003 c -1.54,2.04 -3.867,3.399 -5.949,4.871 -7.199,4.761 -14.884,8.803 -22.665,12.529 -10.388,4.927 -21.134,9.063 -32.183,12.196 -16.531,4.864 -33.606,7.308 -50.765,8.668 -22.873,2.013 -45.945,1.731 -68.649,-1.766 -22.626,-3.462 -45.155,-8.782 -65.935,-18.605 -10.509,-4.82 -20.503,-11.015 -31.353,-15.268 -10.882,-4.36 -22.238,-7.568 -33.801,-9.445 -3.696,-0.684 -7.493,-0.914 -11.092,-1.752 -0.006,-0.004 0.007,0 0.007,0 0.017,0.011 -0.029,-0.009 0.037,0.034 0.077,0.05 0.146,0.122 0.194,0.202 0.067,0.074 0.253,0.429 0.219,0.667 -0.008,0.355 -0.161,0.752 -0.446,0.925 1.263,-0.379 2.81,-0.472 4.217,-0.584 5.705,-0.366 11.516,-0.388 17.299,-0.429 59.908,-0.004 131.644,2.218 191.482,1.583 17.702,-1.108 37.14,-1.617 55.352,-0.775 10.064,0.483 20.071,1.387 29.806,3.561 0,0 0.806,0.237 0.806,0.237 l 3.228,0.945 c 0.545,0.163 1.071,0.294 1.59,0.504 5.061,1.935 10.499,2.999 15.926,2.948 0,0 1.764,-0.037 1.764,-0.037 0.282,-0.005 0.599,-0.015 0.807,0.007 C -2.44,2.216 -2.526,2.19 -2.583,2.164 -2.849,2.022 -3.106,1.832 -3.254,1.475 Z"
             style="fill:#000000;fill-opacity:1;fill-rule:nonzero;stroke:none"
             id="path184" />
        </g>
        <g
           id="g186"
           transform="translate(772.0798,487.3784)">
          <path
             d="m 0,0 c -3.9,-17.421 -19.362,-27.225 -35.362,-32.153 -7.714,-2.712 -15.889,-4.379 -24.028,-4.999 -8.078,-0.711 -16.314,-0.547 -24.328,0.642 l 0.348,3.814 c 7.857,-0.268 15.633,0.112 23.395,1.144 7.715,0.977 15.217,2.724 22.528,5.34 3.753,1.324 7.367,2.674 10.79,4.271 6.916,3.147 12.588,8.026 17.658,13.628 2.551,2.816 4.889,5.866 7.288,9.078 z"
             style="fill:#000000;fill-opacity:1;fill-rule:nonzero;stroke:none"
             id="path188" />
        </g>
        <g
           id="g190"
           transform="translate(674.6411,546.2425)">
          <path
             d="m 0,0 c 4.06,-0.434 10.853,-1.16 16.836,-6.203 2.495,-2.103 5.594,-4.715 6.202,-8.86 0.678,-4.619 -2.128,-8.471 -5.316,-12.849 -1.549,-2.126 -4.025,-5.463 -8.418,-8.417 -3.666,-2.466 -11.256,-7.571 -18.608,-4.874 -6.047,2.218 -8.598,8.491 -10.19,12.405 -1.066,2.621 -3.468,8.779 -1.451,16.107 0.64,2.329 2.259,8.211 7.654,11.362 C -9.312,0.995 -5.425,0.58 0,0"
             style="fill:#f9bec5;fill-opacity:1;fill-rule:nonzero;stroke:none"
             id="path192" />
        </g>
        <g
           id="g194"
           transform="translate(674.2502,542.5856)">
          <path
             d="m 0,0 c -2.811,0.293 -5.528,0.524 -7.592,0.138 -5.65,-0.992 -8.585,-6.587 -9.805,-11.875 -1.453,-6.111 0.853,-12.673 3.979,-17.959 4.211,-7.048 11.86,-6.623 18.389,-2.929 4.794,2.537 8.655,6.034 11.297,10.954 2.255,3.976 4.476,7.7 1.973,11.526 -1.066,1.621 -3.135,3.36 -4.678,4.761 C 9.813,-2.079 5.142,-0.573 0,0 M 0.782,7.314 C 6.912,6.92 13.717,5.556 19.011,1.782 c 1.282,-0.94 2.556,-1.891 3.722,-3.033 8.272,-8.136 5.462,-16.603 -1.589,-23.954 -3.773,-4.689 -8.34,-8.799 -13.571,-11.88 -11.601,-7.609 -22.945,-4.942 -28.497,8.182 -2.694,5.655 -4.662,12.001 -3.696,18.411 0.978,8.543 6.628,17.435 16.004,18.268 3.302,0.346 6.3,-0.146 9.398,-0.462"
             style="fill:#000000;fill-opacity:1;fill-rule:nonzero;stroke:none"
             id="path196" />
        </g>
        <g
           id="g198"
           transform="translate(1224.4562,441.2415)">
          <path
             d="M 0,0 C 16.08,-0.898 29.253,-1.867 38.988,-2.658 67.79,-5 61.713,-5.402 66.456,-5.316 c 3.703,0.066 10.216,0.361 10.633,-1.33 0.505,-2.044 -8.587,-4.229 -8.86,-8.86 -0.262,-4.423 7.763,-6.891 7.088,-10.19 -0.737,-3.602 -10.772,-2.954 -11.519,-6.203 -0.586,-2.55 10.102,-3.785 11.076,-9.304 0.016,-0.091 0.349,-2.153 -0.886,-3.84 -1.506,-2.057 -4.766,-2.764 -8.27,-1.772"
             style="fill:#cccccc;fill-opacity:1;fill-rule:nonzero;stroke:none"
             id="path200" />
        </g>
        <g
           id="g202"
           transform="translate(1224.5288,442.5419)">
          <path
             d="m 0,0 c 11.94,0.043 24.503,-0.225 36.43,-0.99 9.768,-0.885 19.465,-2.195 29.167,-3.666 2.254,-0.056 4.624,0.007 6.907,-0.156 1.965,-0.249 3.778,-0.113 5.482,-1.589 2.201,-2.526 -1.075,-4.577 -2.999,-5.612 -1.972,-1.295 -6.751,-3.41 -4.609,-6.142 1.45,-1.538 3.152,-2.249 4.953,-3.906 2.673,-2.191 3.508,-6.277 -0.013,-8.303 -3.013,-1.734 -7.973,-1.141 -10.116,-2.984 0.006,0.138 -0.067,0.23 -0.032,0.218 2.465,-1.495 5.305,-1.847 7.935,-3.422 4.109,-2.116 5.958,-7.22 3.075,-11.215 -2.641,-3.513 -7.395,-2.006 -10.783,-1.223 0,0 0.496,1.75 0.496,1.75 2.976,-1.168 6.386,1.233 6.256,4.294 -0.875,3.307 -5.612,4.819 -8.274,6.874 -3.472,2.51 -0.913,5.478 2.215,6.385 2.186,0.793 4.294,1.339 6.147,2.476 0.501,0.307 0.847,0.694 0.768,0.761 -0.034,0.024 -0.069,-0.049 -0.137,-0.123 -0.012,-0.046 0.011,-0.086 -0.027,-0.093 -1.023,1.285 -2.759,2.596 -4.128,4.285 -4.988,5.82 -0.776,10.182 4.625,13.127 0.739,0.48 1.683,0.999 2.127,1.524 -0.194,-0.256 -0.047,-0.859 0.132,-1.007 0.142,-0.12 -0.074,0.022 -0.304,0.068 -3.085,0.6 -6.502,0.156 -9.675,0.071 -3.852,0.074 -7.642,0.783 -11.529,0.959 -9.019,0.75 -18.13,0.866 -27.145,1.837 C 18.199,-4.94 8.525,-3.872 -0.145,-2.601 -0.145,-2.601 0,0 0,0"
             style="fill:#000000;fill-opacity:1;fill-rule:nonzero;stroke:none"
             id="path204" />
        </g>
        <g
           id="g206"
           transform="translate(1272.9208,516.0607)">
          <path
             d="m 0,0 c 1.38,1.26 4.239,-2.455 12.675,-4.376 9.513,-2.165 15.642,0.336 16.836,-2.215 1.451,-3.102 -6.91,-8.298 -5.317,-11.962 1.396,-3.208 8.759,-1.409 10.19,-4.873 1.215,-2.94 -3.455,-5.767 -2.215,-9.747 0.688,-2.208 2.327,-1.988 4.873,-5.317 1.258,-1.643 3.986,-5.279 3.102,-8.418 -1.123,-3.985 -8.208,-7.609 -13.144,-4.43 -2.882,1.856 0.073,6.425 -2.658,12.405 -1.827,4 -4.818,5.989 -6.793,7.532 C 5.515,-22.003 -2.854,-2.606 0,0"
             style="fill:#cccccc;fill-opacity:1;fill-rule:nonzero;stroke:none"
             id="path208" />
        </g>
        <g
           id="g210"
           transform="translate(1275.6178,513.1068)">
          <path
             d="m 0,0 c 0.756,0.733 0.72,1.431 0.618,1.129 -0.143,-2.098 0.596,-4.288 1.259,-6.417 2.044,-5.942 5.233,-11.691 9.113,-16.685 2.077,-2.489 4.15,-5.017 6.898,-6.786 2.856,-2.098 5.134,-5.332 6.087,-8.922 0.727,-2.583 0.483,-5.254 0.525,-7.755 0.125,-1.128 0.122,-1.356 0.952,-1.829 3.563,-2.18 10.136,0.119 10.855,4.387 0.076,2.189 -1.184,4.147 -2.471,5.989 -0.955,1.34 -1.912,2.383 -3.205,3.359 -1.727,1.099 -2.808,3.25 -2.522,5.308 0.224,2.809 2.316,4.48 2.517,6.773 -0.128,1.204 -1.315,1.558 -2.496,1.838 -2.116,0.507 -4.5,0.442 -6.482,1.709 -2.888,1.791 -1.914,5.404 -0.41,7.709 0.993,1.888 2.885,4.044 2.978,5.803 -0.187,0.156 -0.154,-0.69 0.02,-0.833 0.07,-0.171 0.416,-0.484 0.353,-0.498 -8.986,-1.651 -19.734,-0.949 -25.573,7.114 0,0 -0.73,0.985 -0.73,0.985 -0.242,0.283 -0.443,0.641 -0.983,0.576 z M -2.697,2.954 C -2.084,4.637 1.617,3.716 2.944,3.687 7.61,3.189 11.87,2.36 16.474,1.845 c 2.624,-0.339 6.42,-0.431 9.006,-1.094 3.046,-0.621 5.182,-3.527 4.089,-6.49 -0.941,-2.338 -2.231,-3.281 -3.719,-4.796 -9.53,-8.971 6.899,-3.056 7.278,-10.819 0.057,-2.742 -2.443,-4.868 -2.64,-7.115 -0.192,-1.367 0.493,-2.424 1.626,-3.167 3.764,-3.064 8.878,-9.35 5.851,-14.364 -2.805,-4.277 -8.596,-6.257 -13.346,-4.288 -0.737,0.405 -1.419,0.654 -2.074,1.412 -0.334,0.347 -0.57,0.815 -0.768,1.241 -0.551,1.443 -0.432,3.19 -0.434,4.602 0.07,3.119 -0.596,5.965 -2.412,8.467 -0.84,1.272 -2.037,2.22 -3.096,3.299 -1.082,1.232 -2.779,1.964 -4.017,3.084 -4.078,3.24 -7.574,7.145 -10.623,11.356 -3.351,4.842 -9.591,14.289 -8.037,20.363 0.285,0.874 0.774,1.722 1.448,2.372 z"
             style="fill:#000000;fill-opacity:1;fill-rule:nonzero;stroke:none"
             id="path212" />
        </g>
        <g
           id="g214"
           transform="translate(1301.9885,462.9506)">
          <path
             d="m 0,0 c 14.483,6.344 27.396,2.558 53.165,-4.873 56.347,-16.25 71.206,-20.237 90.824,-33.672 7.463,-5.111 14.914,-11.109 20.823,-20.823 2.512,-4.13 12.448,-20.152 8.417,-37.215 -4.896,-20.731 -26.653,-31.015 -41.646,-38.102 -22.212,-10.499 -41.58,-12.042 -59.367,-13.291 -24.501,-1.721 -52.488,-0.235 -81.963,1.329 -11.845,0.629 -28.36,1.665 -43.861,-7.975 -2.319,-1.442 -15.811,-10.086 -14.177,-17.278 1.742,-7.67 19.908,-10.294 31.456,-11.962 13.821,-1.997 21.522,-0.833 21.709,-2.216 0.263,-1.957 -14.726,-7.62 -31.456,-7.088 -9.95,0.316 -26.825,0.853 -35.001,13.291 -4.678,7.118 -5.821,17.088 -2.658,25.253 6.539,16.882 29.768,21.623 46.519,24.811 31.968,6.084 40.329,-1.457 85.951,-0.886 35.976,0.449 54.373,5.433 68.228,11.076 12.966,5.28 34.055,13.833 36.329,29.683 1.695,11.81 -7.841,22.158 -13.291,27.912 -13.112,13.846 -31.124,22.705 -74.874,30.57 -51.618,9.28 -80.23,6.598 -81.963,15.507 C -17.952,-10.206 -7.213,-3.16 0,0"
             style="fill:#f9bec5;fill-opacity:1;fill-rule:nonzero;stroke:none"
             id="path216" />
        </g>
        <g
           id="g218"
           transform="translate(1302.8824,460.9099)">
          <path
             d="m 0,0 c -2.559,-1.126 -5.072,-2.489 -7.425,-4.024 -3.17,-2.147 -6.758,-4.693 -8.034,-8.193 -0.431,-1.557 0.287,-2.29 1.415,-3.179 1.451,-1.37 3.571,-1.633 5.521,-2.145 5.612,-1.214 11.512,-1.612 17.268,-2.178 17.612,-1.588 35.212,-3.798 52.633,-6.958 17.426,-3.27 35.034,-6.817 51.553,-13.586 11.104,-4.479 21.494,-11.421 29.406,-20.44 23.956,-25.606 9.463,-44.024 -18.418,-55.656 -21.703,-10.215 -45.675,-13.631 -69.404,-14.366 -11.838,-0.423 -23.7,-0.381 -35.531,0.346 -11.673,0.613 -23.388,2.293 -34.994,2.023 -5.726,-0.121 -11.426,-0.753 -17.107,-1.715 -19.003,-3.774 -50.46,-8.367 -49.973,-33.225 0.575,-19.886 17.561,-25.299 34.866,-25.832 9.917,-0.582 20.215,0.753 29.295,4.838 0.629,0.318 1.299,0.696 1.614,1.013 -0.026,-0.031 0.014,0.015 -0.09,-0.139 -0.041,-0.092 -0.124,-0.232 -0.158,-0.637 -0.027,-0.258 0.154,-0.858 0.346,-1.056 0.263,-0.35 0.4,-0.332 0.499,-0.422 -1.014,0.17 -2.936,0.204 -4.088,0.224 -10.421,0.064 -20.806,1.784 -30.977,3.923 -15.907,3.295 -27.242,11.164 -10.957,24.974 6.973,5.853 15.298,10.09 24.192,12.048 8.755,2.069 17.953,2.036 26.808,1.663 29.293,-1.06 58.63,-1.922 87.831,0.635 17.255,1.243 34.394,4.218 50.268,11.221 15.381,7.008 32.006,14.258 40.217,29.484 8.101,15.185 1.664,33.398 -7.783,46.511 -6.646,9.204 -16.38,15.865 -26.096,21.597 -9.926,5.761 -20.885,9.696 -32.009,13.319 -16.084,5.215 -34.327,10.292 -50.66,15.17 -5.645,1.649 -11.275,3.314 -16.911,4.751 C 22.158,2.851 10.594,4.782 0,0 m -1.788,4.081 c 11.313,5.318 24.475,3.547 36.061,0.551 10.001,-2.475 24.076,-6.654 34.113,-9.451 25.446,-7.685 52.228,-13.274 74.742,-28.343 13.371,-8.414 23.327,-19.492 29.231,-34.316 7.839,-19.339 3.748,-37.544 -12.117,-51.248 -7.008,-6.017 -14.909,-10.449 -23.043,-14.508 -18.768,-10.03 -39.474,-14.693 -60.571,-15.835 -32.499,-2.553 -65.017,1.584 -97.297,3.111 -8.605,0.157 -17.329,-0.826 -25.311,-4.148 -5.238,-2.133 -10.2,-5.305 -14.475,-8.979 -2.955,-2.754 -7.46,-6.706 -6.249,-10.858 1.323,-2.785 4.438,-4.037 7.54,-5.262 2.631,-0.956 5.421,-1.656 8.239,-2.252 9.936,-2.01 20.147,-3.117 30.272,-3.593 1.627,-0.163 3.086,-0.057 4.788,-0.451 0.768,-0.172 1.246,-0.389 1.884,-1.101 4.409,-6.669 -21.388,-10.01 -25.359,-10.198 -6.037,-0.439 -11.955,-0.287 -18.001,0.183 -6.146,0.601 -12.37,1.787 -17.888,4.894 -8.744,4.674 -14.142,14.395 -14.45,24.207 -1.075,25.936 25.978,34.411 46.76,38.07 2.214,0.428 6.592,1.183 8.814,1.524 11.803,1.936 24.13,1.731 35.931,0.325 17.489,-2.086 34.96,-3.131 52.558,-2.713 20.298,0.531 40.974,2.496 59.92,10.084 26.379,10.073 51.663,24.88 25.274,52.994 -7.7,8.736 -17.367,15.065 -28.141,19.36 -16.24,6.561 -33.563,9.867 -50.813,12.85 -11.562,1.94 -23.187,3.444 -34.846,4.789 -11.813,1.4 -23.442,2.336 -35.184,4.898 -2.326,0.505 -4.584,1.434 -6.875,2.343 -1.832,0.934 -3.288,2.735 -3.653,4.835 -1.053,8.286 11.872,15.316 18.146,18.238"
             style="fill:#000000;fill-opacity:1;fill-rule:nonzero;stroke:none"
             id="path220" />
        </g>
        <g
           id="g222"
           transform="translate(1288.9927,407.4227)">
          <path
             d="m 0,0 c -2.251,-5.605 21.172,-11.995 31.604,-31.308 7.256,-13.436 3.97,-25.067 14.177,-31.456 2.512,-1.572 6.797,-3.388 8.861,-1.772 3.149,2.464 -0.684,11.501 1.329,12.405 1.727,0.775 4.455,-5.918 9.747,-6.203 2.788,-0.15 6.13,1.488 7.089,3.988 1.905,4.971 -6.351,11.429 -4.874,13.291 1.435,1.809 9.039,-4.532 13.734,-1.772 2.959,1.738 4.235,6.78 3.102,10.633 -2.071,7.037 -10.855,5.595 -19.494,13.291 -6.729,5.994 -4.019,9.201 -13.291,24.81 C 45.967,16.035 42.468,21.925 35.591,25.844 24.276,32.292 10.353,31.376 9.398,28.422 8.718,26.32 14.493,22.757 13.587,21.266 12.819,20.004 8.504,22.261 6.793,20.38 5.409,18.858 6.67,15.662 6.793,15.359 8.57,10.994 13.281,10.726 13.291,8.27 13.299,6.575 11.06,5.281 8.565,3.84 5.067,1.818 1.178,0.969 1.005,1.392 0.846,1.779 3.757,3.369 3.84,3.249 3.924,3.127 0.721,1.796 0,0"
             style="fill:#f9bec5;fill-opacity:1;fill-rule:nonzero;stroke:none"
             id="path224" />
        </g>
        <g
           id="g226"
           transform="translate(1287.1981,408.1433)">
          <path
             d="M 0,0 C 1.027,2.319 2.672,3.069 4.347,4.218 4.304,4.171 4.351,4.265 4.018,3.926 2.929,3.933 4.586,-1.432 5.952,0.414 6.112,0.441 6.094,0.439 6.173,0.46 6.26,0.489 6.241,0.485 6.217,0.467 5.714,0.196 4.841,-0.36 4.595,-0.626 c 1.16,1.277 0.122,3.371 -1.367,3.494 2.134,0.473 4.759,1.76 6.747,3.114 0.67,0.436 1.322,0.873 1.783,1.278 0.498,0.377 0.67,0.838 0.492,0.518 C 12.183,7.577 12.175,7.29 12.267,7.077 12.347,6.857 12.409,6.858 12.209,6.989 11.881,7.232 11.112,7.664 10.31,8.171 5.354,10.806 1.6,19.947 7.855,23.282 c 2.13,1.055 4.596,0.505 6.402,0.459 -0.464,-0.034 -0.875,-0.191 -1.304,-0.533 -0.906,-0.68 -1.34,-1.995 -1.024,-3.075 0.101,-0.299 0.104,-0.28 0.098,-0.288 -1.56,1.814 -3.553,3.223 -4.463,5.723 -1.548,4.533 2.741,7.327 6.378,7.97 10.501,1.837 21.637,-0.805 30.071,-7.326 5.767,-4.783 9.416,-11.318 12.868,-17.606 3.384,-5.986 5.856,-12.845 7.678,-19.496 2.224,-8.11 9.943,-11.737 17.024,-15.296 5.573,-2.573 7.549,-8.336 5.521,-14.038 -2.948,-8.249 -10.206,-5.303 -16.546,-4.032 -0.053,-0.005 0.017,-0.054 0.227,-0.021 0.266,0.018 0.82,0.22 1.196,0.69 0.483,0.592 0.529,1.136 0.488,1.576 2.305,-3.778 5.876,-7.747 4.812,-12.785 -1.571,-5.674 -9.163,-7.841 -13.92,-5.033 -2.479,1.359 -3.85,3.423 -5.779,4.997 -0.008,0.009 0.016,-0.056 0.381,-0.106 0.379,-0.047 0.881,0.139 1.118,0.399 0.261,0.296 0.264,0.385 0.279,0.408 -0.051,-1.417 0.441,-3.315 0.616,-4.892 2.229,-13.761 -11.865,-10.362 -18.112,-3.65 -6.286,6.762 -5.909,16.654 -8.674,24.831 -1.92,6.18 -5.732,11.604 -10.544,15.931 -4.945,4.485 -10.622,7.798 -16.119,11.691 -2.42,1.737 -5.289,3.708 -6.209,6.907 -0.277,0.962 -0.163,2.182 0.488,2.989 C 0.806,-0.324 0,0 0,0 m 2.783,-1.117 c 0.216,-0.426 0.402,-0.469 0.744,-0.698 4.797,-3.131 9.793,-6.24 14.45,-9.825 11.147,-8.514 20.38,-20.442 23.525,-34.292 1.337,-4.768 1.912,-9.012 4.909,-12.623 2.038,-2.24 5.282,-4.517 8.277,-4.637 0.236,0.065 0.065,-0.124 0.23,0.059 0.983,2.83 -0.217,5.957 0.054,9.075 0.283,3.862 3.953,4.422 6.188,1.712 2.176,-2.313 4.356,-5.355 7.73,-4.578 1.603,0.403 3.369,1.484 3.436,3.064 -0.189,2.329 -2.575,4.853 -3.904,6.987 -1.296,1.95 -2.767,4.614 -0.939,6.917 5.284,5.598 13.738,-9.022 17.923,0.373 1.074,2.786 0.992,6.392 -1.031,8.722 -0.983,1.086 -2.347,1.849 -3.857,2.438 -3.155,1.219 -6.568,2.12 -9.675,3.687 -3.334,1.723 -6.329,3.767 -8.795,6.738 -2.359,2.931 -3.507,6.384 -5.155,9.524 -2.9,5.826 -6.713,11.055 -10.326,16.779 -3.379,5.221 -6.573,10.117 -11.952,13.068 -5.05,2.832 -11.32,4.568 -17.099,4.441 -1.02,0.033 -2.59,-0.227 -3.332,-0.488 -0.063,-0.016 0.002,0.007 0.024,0.052 0.313,0.28 0.548,0.638 0.682,1.078 0.174,0.44 0.159,1.307 0.021,1.551 -0.1,0.231 -0.073,0.083 0.047,-0.093 0.226,-0.408 1.851,-2.235 2.202,-2.656 0.751,-0.917 1.631,-2.057 1.888,-3.496 0.466,-2.112 -0.942,-4.369 -2.975,-4.976 -1.613,-0.575 -4.032,0.1 -5.338,0.172 -0.181,0.015 -0.145,-0.014 -0.017,0.074 0.172,0.077 0.44,0.318 0.531,0.536 0.188,0.433 -0.031,0.195 0.041,-0.283 0.138,-1.745 0.994,-3.022 2.466,-4.075 1.194,-0.931 2.975,-1.835 3.815,-3.745 C 18.448,7.689 17.726,5.293 16.515,4.099 15.047,2.536 13.267,1.717 11.527,0.769 8.821,-0.539 6.063,-1.69 2.936,-1.731 2.053,-1.653 1.108,-1.28 0.648,-0.11 c -0.817,2.56 2.196,3.785 3.997,4.595 0,0 0.207,0.071 0.207,0.071 C 4.981,4.593 5.014,4.608 5.225,4.649 6.641,6.502 8.381,1.12 7.223,1.074 6.853,0.697 6.856,0.76 6.769,0.684 6.11,0.285 5.298,-0.065 4.675,-0.491 4.11,-0.843 3.658,-1.311 3.589,-1.441 Z"
             style="fill:#000000;fill-opacity:1;fill-rule:nonzero;stroke:none"
             id="path228" />
        </g>
        <g
           id="g230"
           transform="translate(1317.052,470.4823)">
          <path
             d="m 0,0 c -3.18,1.651 -11.646,6.048 -11.962,12.405 -0.212,4.255 3.38,6.332 2.215,9.747 -1.56,4.572 -8.975,3.722 -9.945,7.603 -0.829,3.315 3.77,7.17 7.287,10.119 3.226,2.705 7.093,5.946 11.962,6.645 5.923,0.851 10.888,-2.427 19.391,-9.1 C 33.143,26.278 34.394,23.458 41.374,18.224 60.648,3.771 76.555,6.196 78.418,-3.544 c 0.822,-4.296 -1.361,-9.515 -4.43,-10.633 -5.165,-1.882 -12.282,7.508 -14.62,5.759 -1.651,-1.234 1.694,-6.062 0,-7.975 C 56.707,-19.395 46.278,-9.961 29.684,-5.76 15.819,-2.249 11.221,-5.828 0,0"
             style="fill:#f9bec5;fill-opacity:1;fill-rule:nonzero;stroke:none"
             id="path232" />
        </g>
        <g
           id="g234"
           transform="translate(1318.1494,472.5953)">
          <path
             d="m 0,0 c 4.842,-2.001 9.377,-4.304 14.803,-4.569 6.915,-0.27 14.034,-1.296 20.902,-2.782 4.332,-0.197 8.162,-2.491 11.945,-4.3 3,-1.517 5.719,-3.226 8.614,-4.3 0.416,-0.166 0.737,-0.096 0.343,-0.21 -0.185,-0.067 -0.479,-0.3 -0.601,-0.481 -0.092,-0.154 -0.131,-0.255 -0.135,-0.363 0.051,1.77 -1.082,4.057 -0.699,6.061 0.235,2.138 2.522,3.698 4.597,3.188 4.207,-0.578 10.663,-9.885 13.903,-5.256 1.22,1.66 1.892,4.199 1.416,6.276 -0.916,4.075 -6.923,5.44 -10.718,6.927 -5.237,1.803 -10.635,3.841 -15.524,6.616 -2.478,1.422 -4.98,2.843 -7.151,4.727 -4.095,3.845 -8.14,7.856 -12.56,11.224 -4.316,3.302 -8.879,6.223 -13.122,9.613 -8.483,6.71 -14.915,13.619 -25.344,5.518 -2.054,-1.528 -4.313,-3.27 -6.228,-4.968 -1.418,-1.391 -3.234,-2.846 -3.256,-4.81 0.212,-0.76 0.935,-1.1 1.758,-1.468 1.09,-0.485 2.448,-0.893 3.866,-1.573 2.538,-1.089 4.733,-3.579 4.653,-6.515 0.039,-2.299 -1.657,-4.627 -2.128,-6.34 C -12.068,6.295 -4.575,2.421 0,0 m -2.195,-4.226 c -6.347,3.268 -15.112,9.297 -12.592,17.689 0.597,2.439 2.707,4.145 1.852,6.202 -0.938,1.873 -3.681,2.349 -5.757,3.393 -2.823,1.109 -5.001,3.912 -4.019,7.129 1.818,5.174 6.44,8.172 10.267,11.714 8.506,7.314 16.857,7.1 25.848,0.786 4.752,-3.151 9.092,-6.435 13.112,-10.423 5.977,-5.832 10.587,-12.786 18.438,-15.897 7.019,-3.999 13.992,-7.01 21.754,-9.794 2.744,-1.103 5.452,-2.068 8.036,-3.787 2.885,-1.731 5.162,-5.633 5.052,-9.046 0.182,-7.241 -4.684,-15.438 -12.709,-11.443 -2.921,1.187 -5.57,3.695 -8.232,4.764 0.089,-0.025 0.181,-0.027 0.278,-0.013 0.186,0.012 0.434,0.087 0.66,0.231 0.497,0.24 0.689,0.911 0.701,0.935 0.006,0.106 0.016,0.05 0.023,0.014 0.165,-0.995 0.532,-1.867 0.8,-3.021 0.572,-1.881 0.446,-4.941 -1.588,-6.334 -4.144,-2.93 -11.138,1.979 -15.037,3.467 -3.64,1.867 -7.446,2.978 -10.702,5.456 -3.501,1.962 -7.414,3.072 -11.307,3.977 -6.17,1.473 -12.49,0.218 -18.807,1.455 -2.113,0.435 -4.195,1.504 -6.071,2.546"
             style="fill:#000000;fill-opacity:1;fill-rule:nonzero;stroke:none"
             id="path236" />
        </g>
        <g
           id="g238"
           transform="translate(652.7844,501.6429)">
          <path
             d="m 0,0 c -4.556,1.443 -8.536,2.073 -11.519,2.363 -4.263,0.414 -9.096,-0.175 -18.763,-1.353 -4.818,-0.586 -6.386,-0.968 -7.511,-2.389 -2.33,-2.944 -2.019,-7.636 1.712,-9.349 1.964,-1.053 4.567,-1.444 6.728,-1.766 2.243,-0.311 3.973,-0.661 4.125,-1.358 0.158,-0.546 -0.72,-1.199 -2.167,-1.876 -2.537,-1.212 -5.883,-2.406 -7.665,-4.818 -3.058,-4.07 1.133,-10.294 6.062,-9.619 2.318,0.247 4.469,1.515 6.376,2.811 1.222,0.634 5.181,4.418 5.703,3.147 0.312,-0.962 -3.263,-6.066 -2.94,-9.674 -0.026,-2.809 2.217,-6.521 5.396,-5.527 1.926,0.619 3.435,3.15 4.672,4.606 0.878,0.969 1.511,1.539 2.269,1.063 1.158,-0.727 1.749,-4.528 2.524,-6.433 1.018,-2.503 3.715,-4.998 6.179,-5.018 4.051,-0.034 6.893,6.622 7.975,9.156 1.078,2.524 2.29,5.363 2.002,9.033 -0.419,5.331 -3.579,7.004 -7.164,15.22 C 2.711,-8.842 1.928,-6.335 1.477,-4.726 0.985,-3.151 0.492,-1.575 0,0"
             style="fill:#deaaaf;fill-opacity:1;fill-rule:nonzero;stroke:none"
             id="path240" />
        </g>
        <g
           id="g242"
           transform="translate(654.2355,503.0884)">
          <path
             d="m 0,0 c 2.107,-3.133 3.259,-6.97 4.783,-10.399 1.407,-3.125 2.848,-5.962 4.543,-8.995 0.855,-1.534 1.787,-3.4 2.198,-5.574 0.679,-4.11 -0.401,-8.059 -1.758,-11.736 -1.592,-4.068 -2.608,-8.761 -6.582,-11.528 -4.088,-2.734 -9.237,0.445 -11.099,4.194 -1.179,2.051 -1.257,4.606 -2.062,6.713 -0.101,0.314 -0.288,0.585 -0.243,0.516 0.194,-0.274 0.931,-0.338 1.136,-0.198 -1.53,-1.795 -2.403,-5.342 -5.093,-6.727 -2.308,-1.323 -5.579,-0.873 -7.37,1.047 -2,2.149 -1.733,4.826 -1.601,7.377 -0.046,1.209 0.843,3.918 1.686,5.436 0.48,0.984 1.698,3.323 1.884,4.033 0.039,-0.248 0.101,-0.407 0.325,-0.604 0.131,-0.108 0.286,-0.16 0.374,-0.172 0.168,-0.024 0.162,0.002 0.118,-0.02 -1.484,-0.664 -3.648,-3.054 -4.335,-3.601 -2.225,-2.343 -6.006,-4.96 -9.755,-4.314 -6.135,0.773 -10.283,8.486 -6.576,13.74 2.331,3.514 6.932,4.295 10.229,5.751 0.353,0.162 0.716,0.388 0.784,0.458 -0.108,-0.155 -0.237,-0.311 -0.265,-0.808 -0.036,-0.45 0.276,-0.972 0.537,-1.131 -4.196,1.194 -9.816,0.603 -13.14,4.272 -3.476,3.915 -2.326,10.574 2.2,13.019 4.531,1.888 9.304,1.44 14.049,1.944 3.955,0.233 7.973,0.727 12.231,0.278 C -9.256,2.599 -5.734,1.894 -2.299,0.94 -1.51,0.734 -0.676,0.437 0,0 m -2.902,-2.891 c -0.045,-0.119 -0.025,-0.214 0.002,-0.241 -0.01,-0.002 0.049,-0.02 -0.018,0.001 l -0.171,0.051 c -3.281,0.998 -6.692,1.66 -10.107,1.948 -5.255,0.423 -11.75,-0.857 -17.128,-1.758 -2.274,-0.443 -4.453,-0.574 -6.308,-1.264 -0.197,-0.095 -0.271,-0.142 -0.394,-0.261 -1.093,-1.158 -1.553,-3.51 -0.573,-4.763 2.309,-2.512 6.372,-2.403 9.622,-3.215 0.781,-0.192 2.092,-0.517 2.816,-1.499 0.657,-0.693 0.624,-2.329 0.084,-2.964 -0.944,-1.355 -2.353,-1.858 -3.609,-2.594 -2.337,-1.333 -5.716,-3.05 -5.572,-5.711 0.18,-1.517 1.718,-3.531 3.479,-3.572 0.27,-0.001 0.522,-0.014 0.789,0.014 2.389,0.132 5.686,1.444 7.882,3.025 1.12,0.658 2.115,1.61 3.603,1.508 0.516,-0.037 1.138,-0.561 1.287,-1.053 0.089,-0.284 0.095,-0.813 0.047,-0.909 -0.654,-2.367 -2.102,-4.585 -2.343,-7.034 -0.129,-0.832 -0.051,-1.519 0.041,-2.162 0.063,-1.033 1.706,-2.103 2.501,-2.129 0.267,-0.052 0.091,0.008 0.011,-0.057 -0.052,-0.057 0.041,-0.073 0.038,-0.159 0.068,-0.043 0.261,-0.02 0.509,0.062 2.794,0.869 4.8,6.234 8.472,4.223 2.423,-1.81 2.365,-4.943 3.638,-7.32 0.919,-1.554 2.633,-3.306 4.34,-3.243 0.288,0.027 0.754,0.222 1.261,0.604 2.331,1.79 4.227,5.016 5.501,7.86 1.425,2.868 1.625,6.347 0.039,9.032 -1.65,2.655 -4.097,5.563 -5.643,8.569 -2.351,4.672 -4.293,9.689 -4.096,15.011"
             style="fill:#000000;fill-opacity:1;fill-rule:nonzero;stroke:none"
             id="path244" />
        </g>
        <g
           id="g246"
           transform="translate(733.1226,409.7855)">
          <path
             d="m 0,0 c 1.648,-1.083 3.658,-2.403 3.84,-4.43 0.37,-4.139 -7.247,-7.13 -6.498,-9.304 0.741,-2.155 8.535,0.147 10.19,-3.102 1.321,-2.594 -1.623,-7.297 -1.772,-7.531 -1.446,-2.263 -2.619,-2.599 -2.659,-3.988 -0.078,-2.773 4.741,-3.826 4.578,-5.612 -0.203,-2.227 -7.866,-2.698 -16.244,-5.021 -6.026,-1.67 -10.824,-3.856 -14.178,-5.612 -3.292,-4.708 -8.404,-7.177 -12.996,-6.202 -0.359,0.076 -5.394,1.216 -6.793,5.021 -1.283,3.488 1.583,6.248 0.295,7.679 -1.526,1.697 -5.822,-1.882 -12.996,-2.067 -2.267,-0.059 -9.218,-0.238 -11.724,3.938 -2.02,3.366 -0.604,8.648 2.273,11.716 5.705,6.085 17.297,3.609 17.426,5.021 0.127,1.385 -11.221,1.559 -12.996,6.793 -1.012,2.985 1.153,7.42 4.431,9.157 7.026,3.722 17.736,-5.718 19.789,-3.249 1.496,1.799 -4.371,6.601 -2.658,11.223 1.353,3.653 6.897,5.727 11.223,5.022 3.511,-0.573 3.498,-2.531 7.68,-4.726 C -12.123,0.702 -7.131,4.685 0,0"
             style="fill:#f9bec5;fill-opacity:1;fill-rule:nonzero;stroke:none"
             id="path248" />
        </g>
        <g
           id="g250"
           transform="translate(732.2988,408.5316)">
          <path
             d="m 0,0 c -5.115,3.527 -11.408,1.161 -17.12,3.197 -2.093,0.702 -4.08,1.699 -5.846,3.102 -0.876,0.684 -1.612,1.41 -2.186,1.759 -1.971,1.139 -4.7,0.745 -6.832,-0.018 -4.958,-2.014 -4.485,-4.761 -2.026,-8.71 0.888,-1.657 2.152,-3.461 1.224,-5.692 -0.777,-1.852 -3.131,-2.357 -4.747,-1.833 -4.853,1.498 -8.654,5.179 -13.709,5.403 -4.36,0.386 -7.058,-4.241 -5.87,-7.946 1.449,-2.621 5.338,-3.813 8.284,-4.85 1.06,-0.381 2.37,-0.602 3.242,-1.384 0.969,-0.913 0.537,-2.445 -0.64,-2.853 -1.936,-0.551 -3.891,-0.27 -5.824,-0.465 -3.656,-0.221 -7.588,-0.901 -10.289,-3.414 -2.392,-2.235 -3.92,-6.271 -2.957,-9.411 1.105,-3.33 5.198,-4.016 8.44,-4.154 3.874,-0.171 7.431,0.575 11.186,1.77 1.259,0.323 2.111,0.73 3.613,0.58 2.152,-0.283 2.889,-2.495 2.332,-4.216 -0.486,-1.874 -1.049,-3.207 -0.363,-4.852 1.174,-2.395 4.961,-4.544 8.241,-4.178 3.556,0.272 6.958,2.668 9.167,5.742 3.194,1.57 6.467,2.977 9.823,4.149 4.888,1.749 9.973,2.807 15.004,3.932 1.8,0.5 3.891,0.783 5.145,1.821 0.014,0.023 -0.029,-0.047 -0.039,-0.101 0,-0.072 0.01,-0.09 -0.012,-0.052 -0.043,0.089 -0.332,0.338 -0.61,0.545 -2.058,1.343 -5.164,3.376 -3.789,6.5 0.563,1.072 1.13,1.481 1.729,2.303 1.234,1.641 2.363,4.237 2.397,6.076 -0.056,1.266 -0.554,1.262 -1.759,1.55 -2.508,0.609 -7.224,-0.845 -8.852,2.365 -1.47,4.157 4.996,6.236 6.142,9.299 C 3.01,-2.28 1.183,-1.055 0.371,0.564 0.371,0.564 0,0 0,0 M 1.277,1.944 C 4.818,1.642 7.885,-1.853 6.345,-5.5 5.149,-8.617 1.969,-10.313 0.109,-12.417 c -0.043,-0.057 -0.033,-0.069 -0.002,0.054 0.018,0.101 0.036,0.402 -0.073,0.61 -0.111,0.232 -0.276,0.382 -0.33,0.406 -0.078,0.035 -0.006,0 0.067,-0.025 2.881,-0.689 6.646,0.21 9.351,-2.288 3.07,-3.445 0.046,-8.678 -2.205,-11.566 -0.596,-0.708 -1.377,-1.423 -1.499,-1.669 -0.165,-0.333 -0.079,-0.618 0.148,-0.979 0.893,-1.316 2.861,-1.954 3.821,-3.495 1.847,-3.946 -4.443,-4.567 -6.771,-5.137 -1.696,-0.322 -3.367,-0.652 -5.029,-1.007 -6.644,-1.332 -13.066,-3.57 -18.959,-6.858 -0.034,-0.023 0.412,0.363 0.406,0.359 -2.397,-3.607 -6.082,-6.528 -10.524,-7.18 -4.574,-0.608 -10.041,1.421 -11.778,5.988 -0.461,1.218 -0.504,2.598 -0.299,3.783 0.194,1.345 0.867,2.704 0.968,3.626 0.011,-0.074 0.181,-0.164 0.096,-0.133 -0.504,0.084 -1.6,-0.345 -2.219,-0.538 -9.229,-4.042 -27.867,-3.347 -23.097,11.256 3.198,9.192 12.348,9.517 20.535,9.956 0.007,0.004 0.047,0.012 0.029,0.007 -0.051,-0.017 -0.043,-0.016 -0.13,-0.075 -0.149,-0.111 -0.2,-0.158 -0.361,-0.462 -0.172,-0.395 -0.064,-0.93 0.214,-1.198 0.103,-0.105 0.083,-0.063 -0.067,-0.016 -3.845,1.111 -7.714,0.747 -11.357,3.221 -6.505,4.496 -1.446,12.824 4.308,15.079 6.116,2.2 12.333,-1.597 18.059,-2.833 0.156,-0.018 0.255,-0.003 0.295,0.008 -0.238,0.099 -0.96,-0.335 -1.059,-0.733 -0.151,-0.353 -0.114,-0.606 -0.111,-0.62 -0.472,1.495 -1.633,3.112 -2.239,4.803 -1.008,2.294 -1.208,5.586 0.325,7.823 2.794,4.177 8.071,5.649 12.852,5.012 2.239,-0.139 4.609,-2.03 6.021,-3.45 2.776,-2.361 6.23,-3.508 9.938,-3.665 3.979,-0.078 8.824,-0.581 12.215,-3.139 0,0 -0.371,-0.564 -0.371,-0.564"
             style="fill:#000000;fill-opacity:1;fill-rule:nonzero;stroke:none"
             id="path252" />
        </g>
        <g
           id="g254"
           transform="translate(773.8825,606.0531)">
          <path
             d="m 0,0 c -2.29,-0.579 -5.216,-1.768 -8.861,-4.873 -8.512,-7.252 -11.709,-17.085 -13.291,-22.153 -2.549,-8.163 -5.051,-16.177 -2.215,-25.696 1.061,-3.565 3.527,-11.844 11.519,-15.949 7.639,-3.925 15.369,-1.489 17.278,-0.887 9.9,3.121 14.619,11.548 16.836,15.507 5.217,9.315 5.025,18.173 4.873,22.595 -0.045,1.315 -0.544,12.187 -7.088,23.038 -2.94,4.875 -5.182,6.566 -7.089,7.532 C 6.812,1.724 1.485,0.376 0,0"
             style="fill:#ffffff;fill-opacity:1;fill-rule:nonzero;stroke:none"
             id="path256" />
        </g>
        <g
           id="g258"
           transform="translate(773.1738,608.8542)">
          <path
             d="m 0,0 c 10.701,3.214 18.469,-1.454 23.48,-10.963 4.272,-7.546 6.814,-16.125 6.975,-24.818 0.304,-8.113 -1.627,-16.633 -5.869,-23.674 -2.441,-4.28 -5.504,-8.285 -9.601,-11.435 -11.182,-8.558 -28.548,-7.971 -36.607,4.453 -4.757,7.315 -6.726,16.559 -5.26,25.108 0.689,4.247 1.952,8.245 3.227,12.092 2.51,7.949 6.805,15.615 12.872,21.478 C -7.473,-4.91 -4.42,-1.333 0,0 m 1.417,-5.602 c -12.141,-1.515 -17.766,-14.479 -20.706,-24.998 -1.141,-3.888 -2.292,-7.669 -2.817,-11.454 -1.158,-7.376 0.767,-15.353 4.83,-21.384 6.262,-9.457 20.052,-8.89 28.094,-2.147 3.104,2.492 5.583,5.99 7.59,9.64 1.611,2.811 2.882,5.815 3.675,8.954 2.773,10.855 0.829,22.908 -4.472,32.754 -3.576,7.107 -8.069,10.244 -16.194,8.635"
             style="fill:#000000;fill-opacity:1;fill-rule:nonzero;stroke:none"
             id="path260" />
        </g>
        <g
           id="g262"
           transform="translate(718.8331,610.9508)">
          <path
             d="m 0,0 c 4.128,-1.206 6.501,-6.02 7.534,-10.102 2.47,-9.727 0.132,-20.468 -5.229,-28.75 -15.037,-22.071 -39.214,-9.666 -23.573,17.828 4.059,7.011 11.906,23.082 21.129,21.062 z"
             style="fill:#ffffff;fill-opacity:1;fill-rule:nonzero;stroke:none"
             id="path264" />
        </g>
        <g
           id="g266"
           transform="translate(718.3356,609.2018)">
          <path
             d="m 0,0 c -8.801,2.155 -17.459,-12.945 -20.879,-19.619 -2.407,-4.625 -4.044,-9.95 -3.685,-15.14 0.692,-11.481 11.064,-14.032 19.025,-6.918 7.316,6.387 11.526,16.168 11.886,25.858 0.054,4.716 -0.515,9.752 -3.17,13.763 -0.03,0.058 -0.075,0.098 -0.111,0.15 -0.052,-0.036 0.096,0.11 -0.122,-0.075 -0.223,0.232 -0.45,0.454 -0.691,0.647 C 1.584,-0.75 0.81,-0.325 0,0 M 0.995,3.498 C 2.833,3.023 4.436,1.885 5.646,0.452 5.443,0.252 5.605,0.383 5.567,0.331 L 5.593,0.307 c 0.517,-0.506 1.025,-1.085 1.462,-1.66 6.254,-9.062 5.676,-21.389 1.7,-31.268 -3.303,-8.219 -9.772,-15.598 -18.597,-18.012 -10.806,-2.917 -18.922,5.353 -17.222,15.971 0.828,5.651 3.397,10.499 6.07,15.108 4.972,7.352 10.999,25.1 21.989,23.052"
             style="fill:#000000;fill-opacity:1;fill-rule:nonzero;stroke:none"
             id="path268" />
        </g>
        <g
           id="g270"
           transform="translate(773.5552,588.7614)">
          <path
             d="m 0,0 c -10.645,-2.648 -13.672,-18.851 -9.701,-28.084 3.957,-9.931 14.193,-10.066 19.271,-1.094 4.025,6.794 4.731,16.668 0.823,23.589 C 8.362,-1.916 4.409,0.833 0.165,0.03 Z"
             style="fill:#000000;fill-opacity:1;fill-rule:nonzero;stroke:none"
             id="path272" />
        </g>
        <g
           id="g274"
           transform="translate(772.9323,591.6393)">
          <path
             d="m 0,0 c 5.349,1.316 10.768,-1.681 13.702,-5.981 4.068,-6.068 4.717,-13.35 3.023,-20.149 -1.144,-4.502 -3.359,-9.015 -6.911,-12.124 -6.391,-5.777 -15.909,-4.213 -19.909,3.413 C -16.031,-24.279 -13.006,-3.755 0,0 m 1.246,-5.756 c -8.814,-2.209 -11.176,-13.782 -8.937,-21.589 1.08,-4.18 4.503,-9.152 9.254,-7.853 4.421,1.369 6.476,6.593 7.488,10.872 1.366,6.103 0.501,18.862 -7.805,18.57"
             style="fill:#000000;fill-opacity:1;fill-rule:nonzero;stroke:none"
             id="path276" />
        </g>
        <g
           id="g278"
           transform="translate(693.3822,575.0402)">
          <path
             d="m 0,0 c 1.275,-0.889 3.908,-0.128 5.886,0.443 4.792,1.385 7.333,4.491 9.096,6.646 1.603,1.958 4.534,5.645 4.816,11.076 0.039,0.752 0.406,9.043 -2.676,9.747 C 11.333,29.235 -4.821,3.362 0,0"
             style="fill:#000000;fill-opacity:1;fill-rule:nonzero;stroke:none"
             id="path280" />
        </g>
        <g
           id="g282"
           transform="translate(692.2581,573.4283)">
          <path
             d="m 0,0 c -3.314,3.002 -0.341,7.822 1.22,10.906 3.145,5.735 5.931,11.361 10.001,16.59 1.197,1.43 2.681,3.198 4.753,4.142 2.669,1.309 5.508,-0.276 6.694,-2.784 1.735,-3.916 1.994,-6.888 1.822,-11.023 C 23.684,10.209 18.44,3.674 11.648,0.628 9.965,-0.077 8.147,-0.443 6.365,-0.691 4.283,-0.922 1.957,-1.394 0,0 m 2.248,3.224 c 1.899,0.336 4.923,1.564 6.417,2.846 2.061,1.629 3.57,4.039 5.149,6.154 3.359,4.202 4.31,9.699 3.46,14.757 0.003,0.014 0.004,0.055 0.015,0.056 0.015,-0.014 0.036,-0.024 0.06,-0.025 0.177,0.024 0.095,-0.078 0.402,-0.006 0.075,0.043 0.034,0.049 -0.007,0.061 -0.019,0.008 -0.036,0.026 -0.064,0.036 L 17.541,27.082 C 16.315,26.887 15.04,25.971 13.77,24.978 10.253,22.129 7.229,18.322 4.884,14.38 3.14,11.212 1.661,7.374 1.984,3.775 2.043,3.548 2.088,3.227 2.262,3.144 2.284,3.161 2.282,3.226 2.248,3.224"
             style="fill:#000000;fill-opacity:1;fill-rule:nonzero;stroke:none"
             id="path284" />
        </g>
      </g>
    </g>
    <g
       id="g286"
       transform="matrix(0.85148869,0,0,0.89770114,87.514952,108.94551)">
      <g
         id="g288"
         clip-path="url(#clipPath292)">
        <g
           id="g294"
           transform="translate(663.565,537.1601)">
          <path
             d="m 0,0 c 0.023,-10.208 5.464,-16.614 5.464,-16.614 2.671,-3.145 5.343,-4.585 6.203,-5.021 1.76,-0.894 4.142,-2.102 6.941,-1.625 2.232,0.381 3.523,1.628 3.706,1.387 0.262,-0.346 -2.245,-3.173 -5.7,-5.374 -2.631,-1.676 -6.146,-3.907 -10.633,-3.323 -3.36,0.438 -5.636,2.268 -6.646,3.101 -4.152,3.427 -5.218,8.143 -5.981,11.519 -0.396,1.756 -1.113,5.072 -0.443,9.304 0.443,2.793 0.941,6.012 3.545,8.64 2.989,3.017 7.009,3.499 7.088,3.323 C 3.6,5.191 1.699,4.674 0.665,2.88 0.082,1.868 -0.002,0.84 0,0"
             style="fill:#deaaaf;fill-opacity:1;fill-rule:nonzero;stroke:none"
             id="path296" />
        </g>
        <g
           id="g298"
           transform="translate(732.2365,381.1355)">
          <path
             d="m 0,0 c -3.349,-2.461 -9.217,-6.145 -16.836,-7.827 0,0 -7.739,-1.709 -13.291,-0.074 -1.429,0.421 -2.443,0.895 -2.443,0.895 -2.426,1.183 -3.131,2.576 -7.304,3.314 -5.237,0.927 -7.448,-0.68 -12.405,1.108 -2.892,1.042 -6.531,3.153 -6.424,5.316 0.112,2.277 4.275,3.405 4.061,3.914 -0.231,0.549 -5.459,0.096 -8.418,-3.545 -1.434,-1.765 -1.871,-3.708 -2.067,-4.578 -0.324,-1.44 -0.697,-3.055 0,-4.652 0.859,-1.969 2.786,-2.815 3.987,-3.323 5.097,-2.151 10.801,-0.249 11.519,0 0.953,0.331 3.27,1.229 6.424,1.551 1.219,0.124 2.094,0.115 2.659,-0.443 0.478,-0.472 0.518,-1.122 0.443,-3.987 -0.082,-3.112 -0.152,-3.245 0,-3.766 0.57,-1.958 2.419,-3.024 3.323,-3.545 3.003,-1.73 6.116,-1.266 7.088,-1.107 1.868,0.306 2.327,1.026 7.827,4.799 3.148,2.16 4.721,3.239 5.908,3.84 1.977,1.002 4.299,1.641 8.86,2.88 5.051,1.371 7.576,2.057 9.747,2.437 3.337,0.584 5.84,0.757 5.907,1.476 0.092,0.981 -4.312,1.262 -5.021,3.84 C 3.18,-0.15 3.688,1.136 4.43,2.806 5.802,5.893 7.556,6.628 7.532,8.861 7.521,9.842 7.169,10.904 6.793,10.928 6.218,10.966 5.901,8.552 4.873,6.203 4.126,4.494 2.752,2.249 0,0"
             style="fill:#deaaaf;fill-opacity:1;fill-rule:nonzero;stroke:none"
             id="path300" />
        </g>
        <g
           id="g302"
           transform="translate(686.6032,391.7685)">
          <path
             d="m 0,0 c 0.208,0.393 -3.978,3.342 -6.941,6.498 -0.384,0.409 -1.192,1.295 -1.624,2.658 -0.171,0.539 -0.427,1.346 -0.296,2.363 0.125,0.962 0.505,1.409 0.296,1.625 -0.292,0.3 -1.454,-0.125 -2.229,-0.866 -1.605,-1.536 -1.218,-4.121 -1.168,-4.451 0.285,-1.901 1.449,-3.08 1.92,-3.544 C -9.018,3.274 -8.194,3.085 -5.169,1.92 -1.675,0.575 -0.106,-0.201 0,0"
             style="fill:#deaaaf;fill-opacity:1;fill-rule:nonzero;stroke:none"
             id="path304" />
        </g>
        <g
           id="g306"
           transform="translate(701.6666,408.1611)">
          <path
             d="m 0,0 c -0.109,0.324 -0.516,1.102 -1.329,2.658 -0.814,1.557 -0.96,1.716 -1.034,2.215 -0.263,1.771 1.082,3.078 0.779,3.318 C -1.88,8.426 -3.211,7.213 -4.073,6.429 -4.88,5.693 -5.287,5.317 -5.436,4.926 c -0.41,-1.079 0.155,-2.221 0.858,-3.597 0.89,-1.74 1.268,-1.578 1.92,-3.101 0.805,-1.88 0.641,-3.088 0.59,-3.397 -0.17,-1.049 -0.636,-1.599 -0.59,-1.624 C -2.536,-6.861 0.998,-2.969 0,0"
             style="fill:#deaaaf;fill-opacity:1;fill-rule:nonzero;stroke:none"
             id="path308" />
        </g>
        <g
           id="g310"
           transform="translate(934.2637,565.2933)">
          <path
             d="m 0,0 c -0.134,-0.03 1.84,-4.413 0.94,-10.347 -0.258,-1.7 -1.22,-8.038 -6.478,-12.248 -5.377,-4.306 -11.923,-3.725 -13.956,-3.544 -3.828,0.339 -8.297,1.7 -25.032,15.284 -8.58,6.966 -13.613,11.648 -13.956,11.298 -0.285,-0.291 3.012,-3.723 10.412,-12.184 8.798,-10.059 13.197,-15.089 16.571,-19.272 2.404,-2.981 5.51,-5.414 7.575,-8.639 1.059,-1.655 1.932,-3.318 3.544,-3.545 1.234,-0.173 2.12,0.605 5.317,3.102 5.113,3.994 4.381,3.201 5.759,4.43 1.415,1.262 3.908,3.485 6.203,6.646 1.049,1.445 4.077,5.696 5.316,11.297 C 4.308,-8.261 0.186,0.041 0,0"
             style="fill:#deaaaf;fill-opacity:1;fill-rule:nonzero;stroke:none"
             id="path312" />
        </g>
        <g
           id="g314"
           transform="translate(1311.0709,423.9629)">
          <path
             d="m 0,0 c -0.698,-0.853 -3.236,-4.249 -1.994,-12.184 1.383,-8.826 5.739,-12.381 17.722,-29.462 5.221,-7.443 5.897,-8.911 9.304,-12.848 6.523,-7.539 10.621,-12.276 16.835,-13.07 2.579,-0.33 6.158,-0.062 6.646,-1.551 0.355,-1.081 -1.126,-2.467 -1.329,-2.658 -1.1,-1.03 -2.951,-1.775 -4.652,-1.329 -2.666,0.7 -2.416,3.657 -5.981,5.538 -0.881,0.465 -2.418,1.276 -3.766,0.665 -1.507,-0.684 -2.116,-2.843 -1.994,-4.431 0.11,-1.417 0.738,-1.54 1.108,-3.323 0.118,-0.568 0.703,-3.679 -0.665,-4.652 -1.104,-0.785 -3.005,0.162 -3.987,0.665 -4.518,2.315 -6.766,6.667 -7.31,7.753 -3.869,7.727 -2.803,10.634 -5.538,17.722 -2.898,7.51 -7.267,12.47 -9.747,15.285 -4.236,4.808 -8.463,7.966 -12.627,11.076 -7.251,5.417 -13.376,8.673 -12.803,10.047 0.161,0.387 0.691,0.232 3.721,0.807 2.127,0.404 3.852,0.741 5.759,1.551 1.639,0.696 2.79,1.202 3.766,2.437 0.347,0.439 1.646,2.082 1.329,3.987 -0.166,1 -0.923,1.848 -2.436,3.545 -0.854,0.956 -1.767,1.81 -2.659,3.101 -0.239,0.347 -0.405,0.625 -0.737,1.181 -0.618,1.036 -0.925,1.557 -0.813,1.699 0.251,0.317 1.515,-0.967 3.323,-0.886 1.538,0.068 2.623,1.088 2.879,1.329 0.34,0.319 1.105,1.038 1.329,2.215 0.047,0.244 0.141,0.766 -0.015,1.382 C -5.435,6 -5.728,6.77 -7.089,7.753 -8.854,9.029 -10.19,9.054 -10.196,9.4 c -0.011,0.576 3.734,1.382 6.652,1.455 C 8.959,11.165 19.327,-1.68 19.196,-1.838 19.103,-1.95 13.938,4.605 7.31,3.987 2.972,3.583 0.256,0.314 0,0"
             style="fill:#deaaaf;fill-opacity:1;fill-rule:nonzero;stroke:none"
             id="path316" />
        </g>
        <g
           id="g318"
           transform="translate(1361.3562,372.3485)">
          <path
             d="m 0,0 c 0.276,-0.04 0.536,-0.111 0.536,-0.112 0.139,-0.037 0.226,-0.068 0.226,-0.068 0.69,-0.274 1.08,-0.789 1.955,-1.306 0.458,-0.27 0.866,-0.44 1.713,-0.729 1.945,-0.663 3.697,-1.26 5.534,-0.665 0.509,0.165 1.311,0.515 2.152,1.331 -1.123,4.271 -1.36,5.507 -1.262,5.536 0.189,0.057 2.15,-4.194 0.979,-7.011 -0.443,-1.066 -1.2,-2.071 -1.2,-2.071 -0.479,-0.633 -0.969,-1.28 -1.614,-1.683 -2.2,-1.375 -5.658,0.43 -6.361,0.797 -1.087,0.567 -1.097,0.811 -3.077,1.916 -1.897,1.06 -2.536,1.198 -3.125,1.185 -1.539,-0.032 -2.465,-1.085 -2.667,-0.854 -0.207,0.238 0.633,1.509 1.781,2.405 C -2.344,0.299 -0.103,0.015 0,0"
             style="fill:#deaaaf;fill-opacity:1;fill-rule:nonzero;stroke:none"
             id="path320" />
        </g>
        <g
           id="g322"
           transform="translate(1330.8253,507.8895)">
          <path
             d="m 0,0 c -0.226,-0.297 -6.304,6.1 -11.115,4.239 -2.028,-0.785 -3.035,-2.723 -3.544,-3.766 -3.409,-6.981 0.931,-15.855 1.772,-17.5 6.383,-12.486 20.356,-17.587 24.367,-19.051 7.963,-2.907 10.387,-2.489 19.051,-6.867 7.78,-3.932 13.259,-8.33 13.07,-8.64 -0.206,-0.334 -6.668,4.723 -17.279,7.975 -6.812,2.088 -13.174,2.772 -16.393,3.101 -8.096,0.83 -7.971,-0.104 -13.291,0.887 -4.23,0.787 -10.672,2.069 -15.961,7.117 -2.088,1.993 -4.648,4.436 -4.64,7.724 0.006,2.898 2,3.853 1.993,7.532 -0.002,1.025 -0.008,4.475 -2.215,6.203 -2.229,1.744 -4.921,0.337 -6.424,2.215 -0.87,1.087 -0.738,2.521 -0.665,3.323 0.603,6.536 9.971,10.513 11.298,11.076 2.373,1.007 4.654,1.934 7.753,1.772 C -4.616,6.943 0.215,0.283 0,0"
             style="fill:#deaaaf;fill-opacity:1;fill-rule:nonzero;stroke:none"
             id="path324" />
        </g>
        <g
           id="g326"
           transform="translate(1392.8121,462.9506)">
          <path
             d="m 0,0 c -0.484,-0.991 -1.826,-1.597 -2.215,-1.772 -0.451,-0.204 -1.464,-0.661 -2.658,-0.443 -0.703,0.128 -1.137,0.429 -1.622,0.727 -0.319,0.196 -1.62,0.765 -4.222,1.905 -2.674,1.171 -4.011,1.756 -4.125,1.577 -0.239,-0.377 3.482,-2.433 6.424,-5.095 0.339,-0.307 1.751,-1.57 3.644,-1.942 0.127,-0.025 0.24,-0.04 0.344,-0.052 0.431,-0.048 2.055,-0.164 3.544,0.886 1.792,1.264 2.131,3.416 2.202,4.078 C 1.318,-0.114 1.324,-0.058 1.329,0 1.605,3.305 -2.845,7.092 -3.101,6.867 -3.366,6.635 1.214,2.489 0,0"
             style="fill:#deaaaf;fill-opacity:1;fill-rule:nonzero;stroke:none"
             id="path328" />
        </g>
        <g
           id="g330"
           transform="translate(1304.4253,458.5201)">
          <path
             d="m 0,0 c -0.094,-1.279 1.181,-4.53 34.114,-13.734 11.891,-3.323 15.326,-3.906 37.437,-9.526 20.792,-5.284 28.475,-7.493 38.323,-12.405 9.594,-4.785 17.486,-10.261 17.279,-10.633 -0.185,-0.333 -6.829,3.478 -18.386,8.418 -6.286,2.687 -11.953,5.089 -19.494,7.31 -3.969,1.169 -9.493,2.272 -20.38,4.431 -9.027,1.789 -14.743,2.916 -22.817,4.208 -5.74,0.919 -10.8,1.721 -17.721,2.437 -5.987,0.619 -11.427,0.974 -13.513,1.108 -3.94,0.253 -14.399,0.886 -14.399,0.886 -4.815,0.291 -8.836,0.534 -13.513,2.658 -4.101,1.863 -4.546,3.284 -4.652,3.766 -0.663,3.014 3.779,6.31 6.362,8.185 C -1.32,4.398 10.042,5.643 10.19,5.095 10.329,4.578 0.24,3.286 0,0"
             style="fill:#deaaaf;fill-opacity:1;fill-rule:nonzero;stroke:none"
             id="path332" />
        </g>
        <g
           id="g334"
           transform="translate(1311.2924,331.3671)">
          <path
             d="m 0,0 c -0.016,-0.247 -7.009,0.71 -17.5,0 -3.585,-0.243 -13.277,-1.066 -25.697,-4.652 -12.932,-3.734 -19.692,-5.686 -26.36,-11.962 -2.112,-1.988 -8.294,-8.248 -9.747,-17.279 -0.738,-4.585 0.207,-7 0.664,-7.974 1.266,-2.699 3.637,-4.683 8.639,-6.868 4.846,-2.116 6.506,-1.952 20.159,-4.652 9.482,-1.875 13.068,-2.821 18.608,-2.215 1.097,0.12 3.502,0.436 3.544,0.222 0.063,-0.323 -5.284,-1.647 -8.861,-2.437 -5.573,-1.231 -8.677,-1.917 -12.848,-2.215 -6.407,-0.459 -11.284,0.286 -15.064,0.886 -6.662,1.058 -10.99,1.745 -15.949,4.652 -2.816,1.65 -6.476,3.796 -8.861,8.196 -2.195,4.051 -2.205,7.974 -2.215,12.405 -0.008,3.186 -0.015,6.164 1.329,9.747 1.713,4.568 4.578,7.337 6.424,9.083 1.786,1.688 5.386,4.704 14.62,8.196 3.86,1.459 8.644,2.979 17.944,4.873 9.285,1.891 14.846,3.024 22.595,3.545 C -12.824,2.609 0.022,0.336 0,0"
             style="fill:#deaaaf;fill-opacity:1;fill-rule:nonzero;stroke:none"
             id="path336" />
        </g>
        <g
           id="g338"
           transform="translate(1457.0532,412.2223)">
          <path
             d="m 0,0 c -0.253,-0.178 7.723,-7.977 11.298,-21.488 3.092,-11.688 1.105,-20.901 0.664,-22.816 -0.701,-3.046 -2.332,-9.803 -7.532,-16.393 -4.178,-5.295 -9.783,-8.328 -20.823,-14.177 -6.245,-3.309 -12.975,-6.822 -22.595,-10.19 -15.229,-5.332 -25.993,-6.18 -25.918,-6.646 0.081,-0.498 12.536,-0.179 26.804,4.431 4.957,1.601 9.322,3.498 17.944,7.531 9.139,4.276 13.798,6.481 18.164,9.747 2.878,2.153 7.317,5.528 11.519,11.298 2.621,3.598 6.733,9.243 7.754,17.279 0.826,6.507 -0.773,11.447 -2.659,17.057 C 9.551,-9.288 0.277,0.194 0,0"
             style="fill:#deaaaf;fill-opacity:1;fill-rule:nonzero;stroke:none"
             id="path340" />
        </g>
        <g
           id="g342"
           transform="translate(875.1049,375.6948)">
          <path
             d="m 0,0 c 9.165,1.559 16.871,3.529 22.829,5.293 8.212,2.431 16.729,4.952 25.475,9.747 0.616,0.337 2.945,1.625 6.203,3.323 9.867,5.142 13.627,6.428 13.731,6.222 0.11,-0.217 -4.018,-1.725 -3.977,-3.885 0.019,-0.96 0.854,-1.682 2.651,-3.002 2.196,-1.613 5.028,-3.694 6.646,-4.43 17.491,-7.964 61.582,-6.203 61.583,-6.203 6.079,0.243 20.076,-0.281 48.07,-1.329 38.173,-1.429 37.707,-2.789 55.38,-2.88 44.623,-0.228 75.779,8.481 76.055,7.015 0.198,-1.046 -15.591,-5.853 -34.445,-8.486 -17.726,-2.475 -28.428,-1.668 -50.249,-1.408 -6.197,0.073 -23.92,-0.323 -59.368,-0.887 -40.286,-0.641 -46.19,-1.063 -64.463,-0.664 -5.111,0.111 -7.674,0.211 -25.918,0.664 -15.934,0.397 -28.978,0.694 -37.658,0.887"
             style="fill:#deaaaf;fill-opacity:1;fill-rule:nonzero;stroke:none"
             id="path344" />
        </g>
        <g
           id="g346"
           transform="translate(725.81,451.1603)">
          <path
             d="m 0,0 v 0 c 1.977,-1.273 4.782,-3.037 8.199,-5.045 14.077,-8.273 26.196,-13.467 33.193,-16.171 15.898,-6.145 27.079,-8.314 26.956,-8.82 -0.176,-0.729 -23.536,3.215 -49.516,11.256 -13.692,4.238 -26.604,9.258 -30.127,10.633 -5.844,2.282 -10.72,4.317 -14.271,5.836"
             style="fill:#b3b3b3;fill-opacity:1;fill-rule:nonzero;stroke:none"
             id="path348" />
        </g>
        <g
           id="g350"
           transform="translate(690.8902,454.9758)">
          <path
             d="m 0,0 c -3.007,1.37 -7.277,3.684 -11.633,7.532 -5.295,4.678 -7.971,9.197 -12.494,16.835 -4.784,8.079 -7.056,14.033 -9.479,20.38 0,0 -3.544,9.288 -2.585,9.747 0.618,0.296 2.053,-4.539 6.463,-6.645 2.808,-1.342 5.557,-0.972 9.478,-0.444 1.506,0.203 4.997,0.767 9.048,2.659 2.325,1.085 3.866,2.155 5.887,3.571 5.854,4.101 9.366,7.819 9.615,7.58 0.284,-0.273 -5.22,-4.256 -7.258,-11.151 -1.135,-3.841 -0.704,-6.926 0,-11.962 C -2.19,32.605 -1.395,26.918 2.359,20.823 6.129,14.701 11.02,11.196 14.289,8.901 21.149,4.084 26.551,3.137 26.281,1.772 26.116,0.934 23.951,0.573 13.27,0.249 7.71,0.081 3.126,0.022 0,0"
             style="fill:#b3b3b3;fill-opacity:1;fill-rule:nonzero;stroke:none"
             id="path352" />
        </g>
        <g
           id="g354"
           transform="translate(690.5906,571.4958)">
          <path
             d="m 0,0 v 0 c -7.286,-8.318 -10.55,-11.176 -10.55,-11.176 -1.562,-1.368 -2.533,-2.218 -4.07,-3.276 -4.984,-3.43 -8.494,-3.93 -8.418,-5.042 0.07,-1.027 3.12,-1.428 7.416,-2.32 9.84,-2.042 16.244,-4.588 16.508,-3.882 0.193,0.515 -3.473,1.191 -5.147,4.399 -1.222,2.343 -0.686,4.792 0.436,9.594 0,0 0.764,3.27 3.825,11.703"
             style="fill:#b3b3b3;fill-opacity:1;fill-rule:nonzero;stroke:none"
             id="path356" />
        </g>
        <g
           id="g358"
           transform="translate(941.6477,404.7644)">
          <path
             d="m 0,0 c -0.548,1.338 -21.622,-8.604 -49.03,-14.473 -11.164,-2.39 -9.187,-1.066 -62.026,-4.725 -2.998,-0.208 -70.248,-4.87 -81.815,3.839 -0.408,0.308 -4.171,3.21 -5.907,2.068 -1.319,-0.868 -0.091,-3.166 -1.772,-5.907 -1.471,-2.399 -3.718,-2.771 -3.545,-4.136 0.067,-0.522 0.424,-0.683 2.363,-2.362 2.21,-1.914 2.139,-2.045 2.658,-2.363 2.191,-1.341 5.171,-0.061 7.089,0.59 0.034,0.012 4.355,0.402 12.996,1.182 0,0 6.795,0.613 17.131,1.181 14.138,0.777 25.325,-1.042 46.051,-2.022 17.691,-0.836 28.857,-1.312 44.034,0.545 14.389,1.761 23.847,4.575 27.173,5.612 9.113,2.843 15.708,5.93 23.799,9.718 C -18.534,-10.192 0.521,-1.272 0,0"
             style="fill:#b3b3b3;fill-opacity:1;fill-rule:nonzero;stroke:none"
             id="path360" />
        </g>
        <g
           id="g362"
           transform="translate(935.7405,582.5719)">
          <path
             d="m 0,0 c -0.355,2.033 0.294,2.325 -0.132,6.116 -0.26,2.32 -0.721,4.155 -1.033,5.247 -0.455,1.592 -1.195,4.116 -2.905,6.925 -0.506,0.83 -2.271,3.681 -5.086,5.932 -5.791,4.629 -13.013,4.309 -12.996,4.43 0.017,0.119 7.037,0.667 15.359,-2.658 2.205,-0.881 10.309,-4.355 17.032,-12.911 4.152,-5.284 5.963,-10.199 6.892,-12.786 4.493,-12.509 2.778,-23.54 1.772,-29.536 -2.157,-12.859 -7.334,-21.135 -8.565,-23.038 -4.203,-6.496 -8.252,-9.567 -9.747,-10.633 -2.868,-2.044 -5.32,-3.114 -7.331,-3.977 -7.169,-3.078 -16.137,-4.916 -17.184,-2.816 -0.257,0.514 0.22,0.745 0.886,3.544 0.749,3.15 0.29,3.468 0.886,4.43 1.127,1.82 3.181,1.352 6.793,2.954 1.576,0.699 2.724,1.549 5.021,3.249 0.833,0.616 4.168,3.125 8.27,7.679 2.478,2.751 3.999,4.439 5.612,7.089 0.856,1.405 4.211,7.144 5.021,15.359 0.189,1.91 0.479,5.096 -0.295,9.156 -0.272,1.43 -0.748,3.836 -2.096,6.621 C 3.473,-4.041 0.706,-4.046 0,0"
             style="fill:#b3b3b3;fill-opacity:1;fill-rule:nonzero;stroke:none"
             id="path364" />
        </g>
        <g
           id="g366"
           transform="translate(1276.2133,507.9062)">
          <path
             d="m 0,0 c -3.244,6.226 -3.653,7.918 -3.292,8.155 0.726,0.475 3.543,-5.632 10.164,-7.92 2.839,-0.981 5.905,-2.041 9.747,-1.477 1.661,0.244 3.248,0.759 3.84,0 0.649,-0.834 -0.681,-2.207 -1.182,-5.317 -0.337,-2.095 -0.615,-3.818 0.296,-5.021 1.335,-1.764 3.75,-0.46 7.384,-2.658 1.15,-0.696 2.106,-1.293 2.363,-2.363 0.376,-1.571 -1.164,-2.454 -2.068,-5.021 -0.946,-2.688 -0.454,-5.121 -0.295,-5.907 0.634,-3.141 2.541,-5.159 3.839,-6.498 4.342,-4.479 9.372,-5.502 9.157,-6.203 -0.166,-0.539 -2.942,0.697 -6.794,0 -4.332,-0.783 -6.179,-3.315 -7.679,-2.363 -0.893,0.567 -0.996,1.946 -1.182,4.431 -0.191,2.567 0.334,2.95 0,5.021 -0.312,1.938 -1.054,3.349 -1.476,4.135 -1.03,1.919 -2.229,3.13 -2.659,3.544 -1.152,1.111 -1.966,1.5 -3.839,2.658 0,10e-4 -2.547,1.575 -5.032,3.396 -1.901,1.393 -4.232,3.927 -5.923,8.94"
             style="fill:#b3b3b3;fill-opacity:1;fill-rule:nonzero;stroke:none"
             id="path368" />
        </g>
        <g
           id="g370"
           transform="translate(1250.6909,436.8759)">
          <path
             d="m 0,0 c -0.166,-0.981 31.876,-2.984 34.152,-13.92 0.846,-4.068 -2.667,-8.532 -3.825,-10.217 -2.56,-3.724 -6.01,-5.377 -11.995,-7.881 -10.172,-4.256 -15.258,-6.384 -20.55,-7.818 -11.74,-3.179 -16.9,-3.205 -48.089,-8.225 -2.572,-0.414 -8.289,-1.34 -8.27,-1.477 0.024,-0.166 8.516,1.044 20.676,2.363 9.317,1.011 16.374,1.607 21.856,2.068 14.211,1.193 21.316,1.79 24.814,1.712 10.135,-0.227 14.335,-0.183 22.736,-0.097 0,0 2.146,0.022 7.978,1.043 3.699,0.647 4.919,1.095 5.021,1.772 0.133,0.878 -1.755,1.204 -3.839,3.544 -1.736,1.949 -2.389,3.925 -2.715,4.945 -0.537,1.684 -1.007,3.158 -0.387,4.655 0.229,0.551 0.665,1.249 2.511,2.51 3.83,2.617 5.892,2.305 6.202,3.545 0.376,1.501 -2.582,2.238 -4.43,6.202 -0.653,1.4 -1.692,3.613 -0.886,5.612 1.098,2.723 4.76,2.922 4.726,4.726 -0.003,0.171 -0.051,0.895 -1.772,2.067 -2.973,2.026 -6.221,2.178 -7.521,2.208 -5.002,0.115 -6.359,-1.003 -10.792,-1.322 -2.837,-0.203 -3.779,0.147 -9.747,0.886 C 8.566,-0.196 0.086,0.505 0,0"
             style="fill:#b3b3b3;fill-opacity:1;fill-rule:nonzero;stroke:none"
             id="path372" />
        </g>
        <g
           id="g374"
           transform="translate(1269.7942,509.0269)">
          <path
             d="M 0,0 C -0.408,-0.182 0.197,-2.344 0.343,-2.879 1.93,-8.685 1.582,-13.962 0.886,-24.515 0.043,-37.297 -0.378,-43.688 -3.84,-48.439 c -6.554,-8.996 -19.839,-12.811 -27.546,-15.025 -1.207,-0.347 -2.285,-0.629 -2.285,-0.629 -7.167,-1.877 -11.239,-2.061 -11.224,-2.363 0.024,-0.478 10.216,0.116 24.22,-0.591 8.09,-0.409 12.136,-0.613 14.768,-1.181 4.178,-0.903 8.562,-0.702 12.7,-1.773 1.08,-0.279 2.765,-0.752 3.571,0.07 1.082,1.105 -0.685,3.258 -0.912,7.314 -0.23,4.097 1.272,7.252 1.772,8.271 0.656,1.337 1.853,3.778 4.43,5.611 1.947,1.386 2.698,1.013 6.793,3.249 2.8,1.529 3.516,2.286 3.84,2.659 0.325,0.373 2.209,2.536 2.221,5.26 0.009,1.89 -0.886,3.324 -6.061,8.917 -2.789,3.014 -3.958,4.143 -5.611,5.907 -0.312,0.332 -4.127,4.424 -7.68,9.156 C 3.342,-5.843 0.708,0.317 0,0"
             style="fill:#b3b3b3;fill-opacity:1;fill-rule:nonzero;stroke:none"
             id="path376" />
        </g>
        <g
           id="g378"
           transform="translate(912.7023,431.0516)">
          <path
             d="m 0,0 c 0.599,1.525 -10.017,7.916 -21.453,11.271 -2.116,0.621 -4.018,1.171 -6.672,1.56 -8.441,1.239 -15.472,-0.465 -19.724,-1.903 0,0 -22.772,-5.331 -60.253,-10.337 -30.286,-4.045 -51.739,3.666 -52.279,0.886 -0.258,-1.325 4.455,-3.299 8.565,-5.021 3.706,-1.553 6.561,-2.277 24.755,-5.33 4.182,-0.702 5.906,-0.978 8.517,-1.053 5.606,-0.161 9.719,0.765 12.509,1.362 9.18,1.963 18.51,3.147 27.764,4.725 6.725,1.147 10.087,1.72 14.768,2.363 12.779,1.756 23.493,2.409 31.309,2.658 C -21.12,1.535 -15.583,1.712 -9.156,0.886 -3.368,0.142 -0.306,-0.779 0,0"
             style="fill:#b3b3b3;fill-opacity:1;fill-rule:nonzero;stroke:none"
             id="path380" />
        </g>
        <g
           id="g382"
           transform="translate(1105.8687,627.7622)">
          <path
             d="m 0,0 c -0.026,0.301 -7.538,-0.316 -22.448,-0.886 -5.161,-0.197 -12.946,-0.495 -21.561,-0.591 -18.221,-0.202 -15.629,0.773 -34.262,0.886 -15.44,0.094 -21.87,-0.547 -25.401,4.135 -1.837,2.437 -2.774,6.163 -2.067,9.452 1.249,5.814 7.246,8.431 6.793,9.156 -0.533,0.852 -8.772,-2.858 -17.131,-8.565 -7.092,-4.843 -9.916,-8.15 -11.814,-11.519 -1.06,-1.881 -4.089,-7.255 -2.035,-10.08 1.447,-1.991 4.786,-1.846 6.76,-1.735 18.727,1.052 28.946,2.658 28.946,2.658 10.619,1.67 16.358,2.278 21.561,2.659 1.762,0.128 3.596,0.222 7.192,0.405 17.601,0.894 34.339,1.412 35.933,1.461 7.37,0.225 8.958,0.232 12.698,0.496 C -8.178,-1.456 0.028,-0.316 0,0"
             style="fill:#1a1a1a;fill-opacity:1;fill-rule:nonzero;stroke:none"
             id="path384" />
        </g>
        <g
           id="g386"
           transform="translate(863.377,581.9812)">
          <path
             d="M 0,0 C -0.363,0.149 6.381,11.755 6.498,26.878 6.53,30.975 6.52,35.267 4.43,40.169 0.201,50.092 -9.102,54.436 -8.531,55.284 -7.923,56.186 2.077,50.497 4.135,49.325 7.241,47.558 7.596,47.227 14.177,43.123 24.357,36.775 27.115,35.318 26.878,33.376 26.753,32.351 25.939,32.392 22.152,29.536 20.805,28.521 16.793,25.412 13,21.054 12.737,20.752 11.68,19.531 10.338,17.722 4.113,9.335 0.318,-0.131 0,0"
             style="fill:#b3b3b3;fill-opacity:1;fill-rule:nonzero;stroke:none"
             id="path388" />
        </g>
      </g>
    </g>
  </g>
</svg>
